NotoSerifHebrew-CondensedLight.ufo
<glyph name="segolta-hb" format="2">
  <unicode hex="0592"/>
  <note>
uni0592
</note>
  <anchor x="179" y="536" name="_topleft"/>
  <outline>
    <contour>
      <point x="118" y="749" type="curve" smooth="yes"/>
      <point x="138" y="749"/>
      <point x="141" y="763"/>
      <point x="141" y="777" type="curve" smooth="yes"/>
      <point x="141" y="793"/>
      <point x="138" y="805"/>
      <point x="118" y="805" type="curve" smooth="yes"/>
      <point x="102" y="805"/>
      <point x="97" y="793"/>
      <point x="97" y="777" type="curve" smooth="yes"/>
      <point x="97" y="763"/>
      <point x="102" y="749"/>
    </contour>
    <contour>
      <point x="71" y="660" type="curve" smooth="yes"/>
      <point x="91" y="660"/>
      <point x="94" y="674"/>
      <point x="94" y="688" type="curve" smooth="yes"/>
      <point x="94" y="704"/>
      <point x="91" y="716"/>
      <point x="71" y="716" type="curve" smooth="yes"/>
      <point x="55" y="716"/>
      <point x="50" y="704"/>
      <point x="50" y="688" type="curve" smooth="yes"/>
      <point x="50" y="674"/>
      <point x="55" y="660"/>
    </contour>
    <contour>
      <point x="166" y="660" type="curve" smooth="yes"/>
      <point x="186" y="660"/>
      <point x="189" y="674"/>
      <point x="189" y="688" type="curve" smooth="yes"/>
      <point x="189" y="704"/>
      <point x="186" y="716"/>
      <point x="166" y="716" type="curve" smooth="yes"/>
      <point x="150" y="716"/>
      <point x="145" y="704"/>
      <point x="145" y="688" type="curve" smooth="yes"/>
      <point x="145" y="674"/>
      <point x="150" y="660"/>
    </contour>
  </outline>
</glyph>
<glyph name="shalshelet-hb" format="2">
  <unicode hex="0593"/>
  <note>
uni0593
</note>
  <anchor x="94" y="536" name="_top"/>
  <outline>
    <contour>
      <point x="50" y="652" type="line"/>
      <point x="85" y="652" type="line"/>
      <point x="138" y="678" type="line"/>
      <point x="91" y="704" type="line"/>
      <point x="138" y="730" type="line"/>
      <point x="91" y="756" type="line"/>
      <point x="138" y="782" type="line"/>
      <point x="97" y="782" type="line"/>
      <point x="50" y="756" type="line"/>
      <point x="97" y="730" type="line"/>
      <point x="50" y="704" type="line"/>
      <point x="97" y="678" type="line"/>
    </contour>
  </outline>
</glyph>
<glyph name="reviamugrash-hb" format="2">
  <unicode hex="0597"/>
  <note>
uni0597
</note>
  <anchor x="128" y="536" name="_topleft"/>
  <outline>
    <contour>
      <point x="93" y="660" type="line"/>
      <point x="136" y="708" type="line"/>
      <point x="93" y="756" type="line"/>
      <point x="50" y="708" type="line"/>
    </contour>
  </outline>
</glyph>
<glyph name="tevirleft-hb" format="2">
  <unicode hex="059B"/>
  <note>
uni059B
</note>
  <anchor x="155" y="0" name="_bottomleft"/>
  <outline>
    <contour>
      <point x="71" y="-128" type="curve" smooth="yes"/>
      <point x="82" y="-128"/>
      <point x="91" y="-119"/>
      <point x="91" y="-107" type="curve" smooth="yes"/>
      <point x="91" y="-96"/>
      <point x="82" y="-87"/>
      <point x="71" y="-87" type="curve" smooth="yes"/>
      <point x="59" y="-87"/>
      <point x="50" y="-96"/>
      <point x="50" y="-107" type="curve" smooth="yes"/>
      <point x="50" y="-119"/>
      <point x="59" y="-128"/>
    </contour>
    <contour>
      <point x="83" y="-190" type="curve"/>
      <point x="81" y="-218" type="line"/>
      <point x="105" y="-213"/>
      <point x="124" y="-201"/>
      <point x="134" y="-187" type="curve" smooth="yes"/>
      <point x="146" y="-171"/>
      <point x="146" y="-124"/>
      <point x="143" y="-87" type="curve"/>
      <point x="116" y="-89" type="line"/>
      <point x="117" y="-111"/>
      <point x="118" y="-158"/>
      <point x="111" y="-171" type="curve" smooth="yes"/>
      <point x="107" y="-179"/>
      <point x="98" y="-186"/>
    </contour>
  </outline>
</glyph>
<glyph name="gereshmuqdam-hb" format="2">
  <unicode hex="059D"/>
  <note>
uni059D
</note>
  <anchor x="125" y="536" name="_top"/>
  <outline>
    <contour>
      <point x="113" y="772" type="curve"/>
      <point x="111" y="800" type="line"/>
      <point x="87" y="794"/>
      <point x="71" y="783"/>
      <point x="61" y="769" type="curve" smooth="yes"/>
      <point x="49" y="753"/>
      <point x="48" y="706"/>
      <point x="51" y="669" type="curve"/>
      <point x="78" y="667" type="line"/>
      <point x="77" y="689"/>
      <point x="76" y="740"/>
      <point x="83" y="753" type="curve" smooth="yes"/>
      <point x="87" y="761"/>
      <point x="98" y="767"/>
    </contour>
  </outline>
</glyph>
<glyph name="telishagedola-hb" format="2">
  <unicode hex="05A0"/>
  <note>
uni05A0
</note>
  <anchor x="109" y="536" name="_top"/>
  <outline>
    <contour>
      <point x="70" y="670" type="line"/>
      <point x="91" y="691" type="line"/>
      <point x="98" y="687"/>
      <point x="107" y="685"/>
      <point x="116" y="685" type="curve" smooth="yes"/>
      <point x="145" y="685"/>
      <point x="168" y="708"/>
      <point x="168" y="736" type="curve" smooth="yes"/>
      <point x="168" y="765"/>
      <point x="145" y="787"/>
      <point x="116" y="787" type="curve" smooth="yes"/>
      <point x="88" y="787"/>
      <point x="65" y="765"/>
      <point x="65" y="736" type="curve" smooth="yes"/>
      <point x="65" y="727"/>
      <point x="68" y="718"/>
      <point x="72" y="711" type="curve"/>
      <point x="50" y="690" type="line"/>
    </contour>
    <contour>
      <point x="116" y="711" type="curve" smooth="yes"/>
      <point x="102" y="711"/>
      <point x="91" y="722"/>
      <point x="91" y="736" type="curve" smooth="yes"/>
      <point x="91" y="750"/>
      <point x="102" y="762"/>
      <point x="116" y="762" type="curve" smooth="yes"/>
      <point x="129" y="762"/>
      <point x="142" y="750"/>
      <point x="142" y="736" type="curve" smooth="yes"/>
      <point x="142" y="723"/>
      <point x="130" y="711"/>
    </contour>
  </outline>
</glyph>
<glyph name="pazer-hb" format="2">
  <unicode hex="05A1"/>
  <note>
uni05A1
</note>
  <anchor x="97" y="536" name="_top"/>
  <outline>
    <contour>
      <point x="50" y="667" type="line"/>
      <point x="79" y="669" type="line"/>
      <point x="79" y="708" type="line"/>
      <point x="83" y="705"/>
      <point x="88" y="704"/>
      <point x="94" y="704" type="curve" smooth="yes"/>
      <point x="128" y="704"/>
      <point x="144" y="726"/>
      <point x="144" y="759" type="curve" smooth="yes"/>
      <point x="144" y="783" type="line"/>
      <point x="115" y="782" type="line"/>
      <point x="115" y="759" type="line" smooth="yes"/>
      <point x="115" y="738"/>
      <point x="108" y="731"/>
      <point x="91" y="731" type="curve" smooth="yes"/>
      <point x="84" y="731"/>
      <point x="81" y="732"/>
      <point x="79" y="734" type="curve"/>
      <point x="79" y="783" type="line"/>
      <point x="50" y="782" type="line"/>
    </contour>
  </outline>
</glyph>
<glyph name="merkhaleft-hb" format="2">
  <unicode hex="05A5"/>
  <note>
uni05A5
</note>
  <anchor x="131" y="0" name="_bottomleft"/>
  <outline>
    <contour>
      <point x="52" y="-189" type="curve"/>
      <point x="50" y="-217" type="line"/>
      <point x="75" y="-211"/>
      <point x="93" y="-200"/>
      <point x="103" y="-186" type="curve" smooth="yes"/>
      <point x="115" y="-170"/>
      <point x="115" y="-121"/>
      <point x="112" y="-84" type="curve"/>
      <point x="86" y="-86" type="line"/>
      <point x="87" y="-108"/>
      <point x="88" y="-157"/>
      <point x="81" y="-170" type="curve" smooth="yes"/>
      <point x="77" y="-178"/>
      <point x="66" y="-184"/>
    </contour>
  </outline>
</glyph>
<glyph name="telishaqetana-hb" format="2">
  <unicode hex="05A9"/>
  <note>
uni05A9
</note>
  <anchor x="96" y="536" name="_topleft"/>
  <outline>
    <contour>
      <point x="148" y="670" type="line"/>
      <point x="168" y="690" type="line"/>
      <point x="146" y="711" type="line"/>
      <point x="150" y="718"/>
      <point x="153" y="727"/>
      <point x="153" y="736" type="curve" smooth="yes"/>
      <point x="153" y="765"/>
      <point x="130" y="787"/>
      <point x="102" y="787" type="curve" smooth="yes"/>
      <point x="73" y="787"/>
      <point x="50" y="765"/>
      <point x="50" y="736" type="curve" smooth="yes"/>
      <point x="50" y="708"/>
      <point x="73" y="685"/>
      <point x="102" y="685" type="curve" smooth="yes"/>
      <point x="111" y="685"/>
      <point x="120" y="687"/>
      <point x="127" y="691" type="curve"/>
    </contour>
    <contour>
      <point x="102" y="711" type="curve" smooth="yes"/>
      <point x="88" y="711"/>
      <point x="76" y="723"/>
      <point x="76" y="736" type="curve" smooth="yes"/>
      <point x="76" y="750"/>
      <point x="89" y="762"/>
      <point x="102" y="762" type="curve" smooth="yes"/>
      <point x="116" y="762"/>
      <point x="127" y="750"/>
      <point x="127" y="736" type="curve" smooth="yes"/>
      <point x="127" y="722"/>
      <point x="116" y="711"/>
    </contour>
  </outline>
</glyph>
<glyph name="yerahbenyomoleft-hb" format="2">
  <unicode hex="05AA"/>
  <note>
uni05AA
</note>
  <anchor x="105" y="0" name="_bottomleft"/>
  <outline>
    <contour>
      <point x="117" y="-215" type="line"/>
      <point x="117" y="-180" type="line"/>
      <point x="134" y="-176"/>
      <point x="146" y="-168"/>
      <point x="151" y="-156" type="curve" smooth="yes"/>
      <point x="156" y="-144"/>
      <point x="159" y="-134"/>
      <point x="159" y="-119" type="curve" smooth="yes"/>
      <point x="159" y="-111"/>
      <point x="158" y="-93"/>
      <point x="157" y="-85" type="curve"/>
      <point x="131" y="-87" type="line"/>
      <point x="133" y="-96"/>
      <point x="133" y="-113"/>
      <point x="133" y="-119" type="curve" smooth="yes"/>
      <point x="133" y="-144"/>
      <point x="123" y="-156"/>
      <point x="105" y="-156" type="curve" smooth="yes"/>
      <point x="86" y="-156"/>
      <point x="76" y="-144"/>
      <point x="76" y="-118" type="curve" smooth="yes"/>
      <point x="76" y="-111"/>
      <point x="76" y="-95"/>
      <point x="78" y="-85" type="curve"/>
      <point x="52" y="-87" type="line"/>
      <point x="51" y="-95"/>
      <point x="50" y="-114"/>
      <point x="50" y="-122" type="curve" smooth="yes"/>
      <point x="50" y="-135"/>
      <point x="50" y="-145"/>
      <point x="57" y="-156" type="curve" smooth="yes"/>
      <point x="64" y="-167"/>
      <point x="75" y="-176"/>
      <point x="91" y="-180" type="curve"/>
      <point x="91" y="-217" type="line"/>
    </contour>
  </outline>
</glyph>
<glyph name="iluy-hb" format="2">
  <unicode hex="05AC"/>
  <note>
uni05AC
</note>
  <anchor x="103" y="536" name="_top"/>
  <outline>
    <contour>
      <point x="50" y="670" type="line"/>
      <point x="143" y="670" type="line"/>
      <point x="143" y="760" type="line"/>
      <point x="116" y="759" type="line"/>
      <point x="116" y="697" type="line"/>
      <point x="51" y="697" type="line"/>
    </contour>
  </outline>
</glyph>
<glyph name="zinor-hb" format="2">
  <unicode hex="05AE"/>
  <note>
uni05AE
</note>
  <anchor x="145" y="536" name="_top"/>
  <outline>
    <contour>
      <point x="81" y="660" type="curve"/>
      <point x="89" y="680" type="line"/>
      <point x="78" y="685"/>
      <point x="72" y="693"/>
      <point x="72" y="705" type="curve" smooth="yes"/>
      <point x="72" y="719"/>
      <point x="80" y="727"/>
      <point x="91" y="727" type="curve" smooth="yes"/>
      <point x="104" y="727"/>
      <point x="110" y="720"/>
      <point x="127" y="696" type="curve" smooth="yes"/>
      <point x="146" y="669"/>
      <point x="160" y="661"/>
      <point x="179" y="661" type="curve" smooth="yes"/>
      <point x="203" y="661"/>
      <point x="220" y="677"/>
      <point x="220" y="703" type="curve" smooth="yes"/>
      <point x="220" y="725"/>
      <point x="210" y="740"/>
      <point x="189" y="748" type="curve"/>
      <point x="181" y="727" type="line"/>
      <point x="192" y="722"/>
      <point x="198" y="715"/>
      <point x="198" y="703" type="curve" smooth="yes"/>
      <point x="198" y="688"/>
      <point x="190" y="681"/>
      <point x="179" y="681" type="curve" smooth="yes"/>
      <point x="167" y="681"/>
      <point x="158" y="689"/>
      <point x="143" y="711" type="curve" smooth="yes"/>
      <point x="124" y="739"/>
      <point x="110" y="747"/>
      <point x="92" y="747" type="curve" smooth="yes"/>
      <point x="67" y="747"/>
      <point x="50" y="730"/>
      <point x="50" y="705" type="curve" smooth="yes"/>
      <point x="50" y="682"/>
      <point x="60" y="667"/>
    </contour>
  </outline>
</glyph>
<glyph name="segol-hb" format="2">
  <unicode hex="05B6"/>
  <note>
segol
</note>
  <anchor x="120" y="0" name="_bottom"/>
  <outline>
    <contour>
      <point x="166" y="-122" type="curve" smooth="yes"/>
      <point x="186" y="-122"/>
      <point x="189" y="-110"/>
      <point x="189" y="-94" type="curve" smooth="yes"/>
      <point x="189" y="-80"/>
      <point x="186" y="-66"/>
      <point x="166" y="-66" type="curve" smooth="yes"/>
      <point x="150" y="-66"/>
      <point x="145" y="-80"/>
      <point x="145" y="-94" type="curve" smooth="yes"/>
      <point x="145" y="-110"/>
      <point x="150" y="-122"/>
    </contour>
    <contour>
      <point x="118" y="-211" type="curve" smooth="yes"/>
      <point x="138" y="-211"/>
      <point x="141" y="-199"/>
      <point x="141" y="-183" type="curve" smooth="yes"/>
      <point x="141" y="-169"/>
      <point x="138" y="-155"/>
      <point x="118" y="-155" type="curve" smooth="yes"/>
      <point x="102" y="-155"/>
      <point x="97" y="-169"/>
      <point x="97" y="-183" type="curve" smooth="yes"/>
      <point x="97" y="-199"/>
      <point x="102" y="-211"/>
    </contour>
    <contour>
      <point x="71" y="-122" type="curve" smooth="yes"/>
      <point x="91" y="-122"/>
      <point x="94" y="-110"/>
      <point x="94" y="-94" type="curve" smooth="yes"/>
      <point x="94" y="-80"/>
      <point x="91" y="-66"/>
      <point x="71" y="-66" type="curve" smooth="yes"/>
      <point x="55" y="-66"/>
      <point x="50" y="-80"/>
      <point x="50" y="-94" type="curve" smooth="yes"/>
      <point x="50" y="-110"/>
      <point x="55" y="-122"/>
    </contour>
  </outline>
</glyph>
<glyph name="patah-hb" format="2">
  <unicode hex="05B7"/>
  <note>
patah
</note>
  <anchor x="104" y="0" name="_bottom"/>
  <outline>
    <contour>
      <point x="50" y="-107" type="line"/>
      <point x="155" y="-107" type="line"/>
      <point x="158" y="-82" type="line"/>
      <point x="53" y="-82" type="line"/>
    </contour>
  </outline>
</glyph>
<glyph name="qamats-hb" format="2">
  <unicode hex="05B8"/>
  <note>
qamats
</note>
  <anchor x="106" y="0" name="_bottom"/>
  <outline>
    <contour>
      <point x="91" y="-196" type="line"/>
      <point x="116" y="-193" type="line"/>
      <point x="116" y="-106" type="line"/>
      <point x="155" y="-106" type="line"/>
      <point x="158" y="-81" type="line"/>
      <point x="53" y="-81" type="line"/>
      <point x="50" y="-106" type="line"/>
      <point x="91" y="-106" type="line"/>
    </contour>
  </outline>
</glyph>
<glyph name="dagesh-hb" format="2">
  <unicode hex="05BC"/>
  <note>
dagesh
</note>
  <anchor x="72" y="300" name="_center"/>
  <outline>
    <contour>
      <point x="50" y="300" type="curve" smooth="yes"/>
      <point x="50" y="285"/>
      <point x="54" y="272"/>
      <point x="71" y="272" type="curve" smooth="yes"/>
      <point x="91" y="272"/>
      <point x="94" y="285"/>
      <point x="94" y="300" type="curve" smooth="yes"/>
      <point x="94" y="315"/>
      <point x="91" y="328"/>
      <point x="71" y="328" type="curve" smooth="yes"/>
      <point x="55" y="328"/>
      <point x="50" y="315"/>
    </contour>
  </outline>
</glyph>
<glyph name="maqaf-hb" format="2">
  <advance width="230"/>
  <unicode hex="05BE"/>
  <outline>
    <contour>
      <point x="20" y="564" type="line"/>
      <point x="210" y="564" type="line"/>
      <point x="210" y="592" type="line"/>
      <point x="20" y="592" type="line"/>
    </contour>
  </outline>
</glyph>
<glyph name="rafe-hb" format="2">
  <unicode hex="05BF"/>
  <note>
rafe
</note>
  <anchor x="132" y="536" name="_top"/>
  <outline>
    <contour>
      <point x="50" y="685" type="line"/>
      <point x="211" y="685" type="line"/>
      <point x="214" y="710" type="line"/>
      <point x="53" y="710" type="line"/>
    </contour>
  </outline>
</glyph>
<glyph name="paseq-hb" format="2">
  <advance width="423"/>
  <unicode hex="05C0"/>
  <note>
paseq
</note>
  <outline>
    <contour>
      <point x="198" y="673" type="line"/>
      <point x="198" y="-81" type="line"/>
      <point x="226" y="-81" type="line"/>
      <point x="226" y="673" type="line"/>
    </contour>
  </outline>
</glyph>
<glyph name="sindot-hb" format="2">
  <unicode hex="05C2"/>
  <note>
sindot
</note>
  <anchor x="72" y="536" name="_top"/>
  <outline>
    <contour>
      <point x="71" y="660" type="curve" smooth="yes"/>
      <point x="91" y="660"/>
      <point x="94" y="673"/>
      <point x="94" y="688" type="curve" smooth="yes"/>
      <point x="94" y="703"/>
      <point x="91" y="716"/>
      <point x="71" y="716" type="curve" smooth="yes"/>
      <point x="55" y="716"/>
      <point x="50" y="703"/>
      <point x="50" y="688" type="curve" smooth="yes"/>
      <point x="50" y="673"/>
      <point x="55" y="660"/>
    </contour>
  </outline>
</glyph>
<glyph name="lowerdot-hb" format="2">
  <unicode hex="05C5"/>
  <note>
lowerdot
</note>
  <anchor x="72" y="0" name="_bottom"/>
  <outline>
    <contour>
      <point x="71" y="-122" type="curve" smooth="yes"/>
      <point x="91" y="-122"/>
      <point x="94" y="-110"/>
      <point x="94" y="-94" type="curve" smooth="yes"/>
      <point x="94" y="-80"/>
      <point x="91" y="-66"/>
      <point x="71" y="-66" type="curve" smooth="yes"/>
      <point x="55" y="-66"/>
      <point x="50" y="-80"/>
      <point x="50" y="-94" type="curve" smooth="yes"/>
      <point x="50" y="-110"/>
      <point x="55" y="-122"/>
    </contour>
  </outline>
</glyph>
<glyph name="nunhafukha-hb" format="2">
  <advance width="215"/>
  <unicode hex="05C6"/>
  <note>
uni05C6
</note>
  <outline>
    <contour>
      <point x="107" y="0" type="curve" smooth="yes"/>
      <point x="208" y="0" type="line"/>
      <point x="205" y="28" type="line"/>
      <point x="119" y="28" type="line" smooth="yes"/>
      <point x="74" y="28"/>
      <point x="62" y="44"/>
      <point x="62" y="86" type="curve" smooth="yes"/>
      <point x="62" y="516" type="line" smooth="yes"/>
      <point x="62" y="553"/>
      <point x="72" y="564"/>
      <point x="99" y="564" type="curve" smooth="yes"/>
      <point x="140" y="564" type="line" smooth="yes"/>
      <point x="155" y="564"/>
      <point x="159" y="571"/>
      <point x="159" y="585" type="curve" smooth="yes"/>
      <point x="159" y="597"/>
      <point x="156" y="625"/>
      <point x="152" y="647" type="curve"/>
      <point x="139" y="647" type="line"/>
      <point x="139" y="627" type="line" smooth="yes"/>
      <point x="139" y="603"/>
      <point x="132" y="592"/>
      <point x="117" y="592" type="curve" smooth="yes"/>
      <point x="99" y="592" type="line" smooth="yes"/>
      <point x="52" y="592"/>
      <point x="37" y="572"/>
      <point x="37" y="523" type="curve" smooth="yes"/>
      <point x="37" y="92" type="line" smooth="yes"/>
      <point x="37" y="22"/>
      <point x="63" y="0"/>
    </contour>
  </outline>
</glyph>
<glyph name="alef-hb" format="2">
  <advance width="410"/>
  <unicode hex="05D0"/>
  <anchor x="219" y="0" name="bottom"/>
  <anchor x="38" y="0" name="bottomleft"/>
  <anchor x="177" y="203" name="center"/>
  <anchor x="200" y="536" name="top"/>
  <anchor x="-9" y="536" name="topleft"/>
  <outline>
    <contour>
      <point x="363" y="-3" type="curve"/>
      <point x="372" y="-3" type="line"/>
      <point x="377" y="3"/>
      <point x="382" y="11"/>
      <point x="382" y="18" type="curve" smooth="yes"/>
      <point x="382" y="31"/>
      <point x="373" y="48"/>
      <point x="361" y="68" type="curve" smooth="yes"/>
      <point x="54" y="612" type="line" smooth="yes"/>
      <point x="49" y="622"/>
      <point x="44" y="627"/>
      <point x="44" y="638" type="curve" smooth="yes"/>
      <point x="44" y="647" type="line"/>
      <point x="32" y="647" type="line"/>
      <point x="27" y="638"/>
      <point x="23" y="629"/>
      <point x="23" y="621" type="curve" smooth="yes"/>
      <point x="23" y="611"/>
      <point x="27" y="602"/>
      <point x="36" y="586" type="curve" smooth="yes"/>
      <point x="350" y="29" type="line" smooth="yes"/>
      <point x="358" y="16"/>
      <point x="363" y="9"/>
    </contour>
    <contour>
      <point x="28" y="0" type="line"/>
      <point x="92" y="0" type="line"/>
      <point x="96" y="10"/>
      <point x="95" y="12"/>
      <point x="92" y="43" type="curve" smooth="yes"/>
      <point x="71" y="230" type="line" smooth="yes"/>
      <point x="65" y="279"/>
      <point x="72" y="330"/>
      <point x="84" y="379" type="curve" smooth="yes"/>
      <point x="114" y="499" type="line"/>
      <point x="90" y="499" type="line"/>
      <point x="55" y="379" type="line" smooth="yes"/>
      <point x="39" y="323"/>
      <point x="36" y="272"/>
      <point x="40" y="225" type="curve" smooth="yes"/>
      <point x="56" y="35" type="line" smooth="yes"/>
      <point x="57" y="23"/>
      <point x="55" y="20"/>
      <point x="44" y="20" type="curve" smooth="yes"/>
      <point x="28" y="20" type="line"/>
    </contour>
    <contour>
      <point x="291" y="185" type="line"/>
      <point x="291" y="334"/>
      <point x="301" y="392"/>
      <point x="320" y="459" type="curve" smooth="yes"/>
      <point x="355" y="580" type="line"/>
      <point x="329" y="580" type="line"/>
      <point x="293" y="459" type="line" smooth="yes"/>
      <point x="277" y="403"/>
      <point x="265" y="318"/>
      <point x="265" y="221" type="curve"/>
    </contour>
    <contour>
      <point x="387" y="561" type="line"/>
      <point x="390" y="566"/>
      <point x="392" y="571"/>
      <point x="392" y="579" type="curve" smooth="yes"/>
      <point x="392" y="585"/>
      <point x="387" y="589"/>
      <point x="378" y="590" type="curve" smooth="yes"/>
      <point x="325" y="598" type="line" smooth="yes"/>
      <point x="309" y="600"/>
      <point x="305" y="604"/>
      <point x="305" y="629" type="curve" smooth="yes"/>
      <point x="305" y="647" type="line"/>
      <point x="292" y="647" type="line"/>
      <point x="286" y="628"/>
      <point x="283" y="612"/>
      <point x="283" y="595" type="curve" smooth="yes"/>
      <point x="283" y="581"/>
      <point x="288" y="575"/>
      <point x="303" y="573" type="curve" smooth="yes"/>
    </contour>
  </outline>
</glyph>
<glyph name="bet-hb" format="2">
  <advance width="340"/>
  <unicode hex="05D1"/>
  <anchor x="166" y="0" name="bottom"/>
  <anchor x="2" y="0" name="bottomleft"/>
  <anchor x="147" y="310" name="center"/>
  <anchor x="140" y="536" name="top"/>
  <anchor x="0" y="536" name="topleft"/>
  <outline>
    <contour>
      <point x="13" y="0" type="line"/>
      <point x="319" y="0" type="line"/>
      <point x="319" y="28" type="line"/>
      <point x="270" y="28" type="line"/>
      <point x="274" y="41"/>
      <point x="283" y="110"/>
      <point x="283" y="143" type="curve" smooth="yes"/>
      <point x="283" y="526" type="line" smooth="yes"/>
      <point x="283" y="575"/>
      <point x="268" y="592"/>
      <point x="221" y="592" type="curve" smooth="yes"/>
      <point x="59" y="592" type="line" smooth="yes"/>
      <point x="44" y="592"/>
      <point x="37" y="603"/>
      <point x="37" y="627" type="curve" smooth="yes"/>
      <point x="37" y="647" type="line"/>
      <point x="24" y="647" type="line"/>
      <point x="20" y="625"/>
      <point x="17" y="597"/>
      <point x="17" y="585" type="curve" smooth="yes"/>
      <point x="17" y="571"/>
      <point x="21" y="564"/>
      <point x="36" y="564" type="curve" smooth="yes"/>
      <point x="219" y="564" type="line" smooth="yes"/>
      <point x="246" y="564"/>
      <point x="256" y="556"/>
      <point x="256" y="519" type="curve" smooth="yes"/>
      <point x="256" y="130" type="line" smooth="yes"/>
      <point x="256" y="102"/>
      <point x="248" y="41"/>
      <point x="243" y="28" type="curve"/>
      <point x="16" y="28" type="line"/>
    </contour>
  </outline>
</glyph>
<glyph name="gimel-hb" format="2">
  <advance width="201"/>
  <unicode hex="05D2"/>
  <anchor x="131" y="0" name="bottom"/>
  <anchor x="-30" y="0" name="bottomleft"/>
  <anchor x="65" y="310" name="center"/>
  <anchor x="110" y="536" name="top"/>
  <anchor x="2" y="536" name="topleft"/>
  <outline>
    <contour>
      <point x="160" y="-3" type="curve"/>
      <point x="163" y="-3" type="line"/>
      <point x="168" y="-3"/>
      <point x="180" y="5"/>
      <point x="184" y="10" type="curve"/>
      <point x="157" y="121" type="line" smooth="yes"/>
      <point x="152" y="140"/>
      <point x="150" y="158"/>
      <point x="150" y="176" type="curve" smooth="yes"/>
      <point x="150" y="571" type="line" smooth="yes"/>
      <point x="150" y="584"/>
      <point x="145" y="592"/>
      <point x="131" y="592" type="curve" smooth="yes"/>
      <point x="95" y="592" type="line" smooth="yes"/>
      <point x="80" y="592"/>
      <point x="73" y="603"/>
      <point x="73" y="627" type="curve" smooth="yes"/>
      <point x="73" y="647" type="line"/>
      <point x="60" y="647" type="line"/>
      <point x="58" y="635"/>
      <point x="53" y="606"/>
      <point x="53" y="582" type="curve" smooth="yes"/>
      <point x="53" y="570"/>
      <point x="59" y="564"/>
      <point x="72" y="564" type="curve" smooth="yes"/>
      <point x="112" y="564" type="line" smooth="yes"/>
      <point x="121" y="564"/>
      <point x="123" y="560"/>
      <point x="123" y="550" type="curve" smooth="yes"/>
      <point x="123" y="156" type="line" smooth="yes"/>
      <point x="123" y="94"/>
      <point x="88" y="28"/>
      <point x="57" y="28" type="curve" smooth="yes"/>
      <point x="11" y="28" type="line"/>
      <point x="8" y="0" type="line"/>
      <point x="84" y="0" type="line" smooth="yes"/>
      <point x="93" y="0"/>
      <point x="98" y="5"/>
      <point x="102" y="15" type="curve" smooth="yes"/>
      <point x="136" y="97" type="line"/>
      <point x="143" y="73"/>
      <point x="153" y="20"/>
    </contour>
  </outline>
</glyph>
<glyph name="dalet-hb" format="2">
  <advance width="320"/>
  <unicode hex="05D3"/>
  <anchor x="248" y="0" name="bottom"/>
  <anchor x="84" y="0" name="bottomleft"/>
  <anchor x="131" y="310" name="center"/>
  <anchor x="159" y="536" name="top"/>
  <anchor x="-17" y="536" name="topleft"/>
  <outline>
    <contour>
      <point x="231" y="-6" type="line"/>
      <point x="236" y="-6" type="line"/>
      <point x="246" y="-2"/>
      <point x="255" y="2"/>
      <point x="261" y="8" type="curve"/>
      <point x="256" y="564" type="line"/>
      <point x="295" y="564" type="line"/>
      <point x="295" y="583" type="line" smooth="yes"/>
      <point x="295" y="589"/>
      <point x="291" y="592"/>
      <point x="285" y="592" type="curve" smooth="yes"/>
      <point x="50" y="592" type="line" smooth="yes"/>
      <point x="35" y="592"/>
      <point x="28" y="603"/>
      <point x="28" y="627" type="curve" smooth="yes"/>
      <point x="28" y="647" type="line"/>
      <point x="15" y="647" type="line"/>
      <point x="13" y="635"/>
      <point x="8" y="606"/>
      <point x="8" y="582" type="curve" smooth="yes"/>
      <point x="8" y="570"/>
      <point x="14" y="564"/>
      <point x="27" y="564" type="curve" smooth="yes"/>
      <point x="233" y="564" type="line"/>
      <point x="233" y="563" type="line" smooth="yes"/>
      <point x="233" y="530"/>
      <point x="231" y="502"/>
      <point x="231" y="444" type="curve" smooth="yes"/>
    </contour>
  </outline>
</glyph>
<glyph name="vav-hb" format="2">
  <advance width="166"/>
  <unicode hex="05D5"/>
  <anchor x="107" y="0" name="bottom"/>
  <anchor x="-54" y="0" name="bottomleft"/>
  <anchor x="40" y="310" name="center"/>
  <anchor x="78" y="536" name="top"/>
  <anchor x="65" y="536" name="topleft"/>
  <outline>
    <contour>
      <point x="89" y="-6" type="line"/>
      <point x="95" y="-6" type="line"/>
      <point x="107" y="-2"/>
      <point x="115" y="2"/>
      <point x="121" y="8" type="curve"/>
      <point x="117" y="571" type="line" smooth="yes"/>
      <point x="117" y="584"/>
      <point x="112" y="592"/>
      <point x="97" y="592" type="curve" smooth="yes"/>
      <point x="58" y="592" type="line" smooth="yes"/>
      <point x="43" y="592"/>
      <point x="35" y="603"/>
      <point x="35" y="627" type="curve" smooth="yes"/>
      <point x="35" y="647" type="line"/>
      <point x="22" y="647" type="line"/>
      <point x="18" y="635"/>
      <point x="15" y="606"/>
      <point x="15" y="582" type="curve" smooth="yes"/>
      <point x="15" y="570"/>
      <point x="22" y="564"/>
      <point x="36" y="564" type="curve" smooth="yes"/>
      <point x="77" y="564" type="line" smooth="yes"/>
      <point x="87" y="564"/>
      <point x="89" y="560"/>
      <point x="89" y="550" type="curve" smooth="yes"/>
    </contour>
  </outline>
</glyph>
<glyph name="zayin-hb" format="2">
  <advance width="145"/>
  <unicode hex="05D6"/>
  <anchor x="86" y="0" name="bottom"/>
  <anchor x="-70" y="0" name="bottomleft"/>
  <anchor x="-4" y="310" name="center"/>
  <anchor x="73" y="536" name="top"/>
  <anchor x="-1" y="536" name="topleft"/>
  <outline>
    <contour>
      <point x="67" y="-6" type="curve"/>
      <point x="73" y="-6" type="line"/>
      <point x="85" y="-2"/>
      <point x="95" y="2"/>
      <point x="101" y="8" type="curve"/>
      <point x="87" y="72"/>
      <point x="72" y="201"/>
      <point x="72" y="335" type="curve" smooth="yes"/>
      <point x="72" y="424"/>
      <point x="78" y="501"/>
      <point x="91" y="581" type="curve"/>
      <point x="66" y="581" type="line"/>
      <point x="53" y="498"/>
      <point x="44" y="407"/>
      <point x="44" y="325" type="curve" smooth="yes"/>
      <point x="44" y="216"/>
      <point x="56" y="85"/>
    </contour>
    <contour>
      <point x="124" y="561" type="line"/>
      <point x="126" y="566"/>
      <point x="127" y="571"/>
      <point x="127" y="579" type="curve" smooth="yes"/>
      <point x="127" y="585"/>
      <point x="123" y="589"/>
      <point x="115" y="590" type="curve" smooth="yes"/>
      <point x="66" y="598" type="line" smooth="yes"/>
      <point x="50" y="601"/>
      <point x="46" y="604"/>
      <point x="46" y="629" type="curve" smooth="yes"/>
      <point x="46" y="647" type="line"/>
      <point x="33" y="647" type="line"/>
      <point x="26" y="628"/>
      <point x="23" y="612"/>
      <point x="23" y="595" type="curve" smooth="yes"/>
      <point x="23" y="581"/>
      <point x="28" y="576"/>
      <point x="45" y="573" type="curve" smooth="yes"/>
    </contour>
  </outline>
</glyph>
<glyph name="het-hb" format="2">
  <advance width="412"/>
  <unicode hex="05D7"/>
  <anchor x="208" y="0" name="bottom"/>
  <anchor x="53" y="0" name="bottomleft"/>
  <anchor x="208" y="310" name="center"/>
  <anchor x="206" y="536" name="top"/>
  <anchor x="15" y="536" name="topleft"/>
  <outline>
    <contour>
      <point x="330" y="-6" type="line"/>
      <point x="335" y="-6" type="line"/>
      <point x="345" y="-2"/>
      <point x="354" y="2"/>
      <point x="360" y="8" type="curve"/>
      <point x="355" y="564" type="line"/>
      <point x="367" y="567" type="line"/>
      <point x="367" y="583" type="line" smooth="yes"/>
      <point x="367" y="589"/>
      <point x="363" y="592"/>
      <point x="357" y="592" type="curve" smooth="yes"/>
      <point x="75" y="592" type="line" smooth="yes"/>
      <point x="60" y="592"/>
      <point x="53" y="603"/>
      <point x="53" y="627" type="curve" smooth="yes"/>
      <point x="53" y="647" type="line"/>
      <point x="40" y="647" type="line"/>
      <point x="36" y="625"/>
      <point x="33" y="597"/>
      <point x="33" y="585" type="curve" smooth="yes"/>
      <point x="33" y="571"/>
      <point x="37" y="564"/>
      <point x="52" y="564" type="curve" smooth="yes"/>
      <point x="332" y="564" type="line"/>
      <point x="332" y="563" type="line"/>
      <point x="330" y="535"/>
      <point x="330" y="502"/>
      <point x="330" y="444" type="curve" smooth="yes"/>
    </contour>
    <contour>
      <point x="56" y="-6" type="line"/>
      <point x="61" y="-6" type="line"/>
      <point x="71" y="-2"/>
      <point x="80" y="2"/>
      <point x="86" y="8" type="curve"/>
      <point x="81" y="572" type="line"/>
      <point x="58" y="572" type="line"/>
      <point x="58" y="563" type="line"/>
      <point x="57" y="535"/>
      <point x="56" y="502"/>
      <point x="56" y="444" type="curve" smooth="yes"/>
    </contour>
  </outline>
</glyph>
<glyph name="tet-hb" format="2">
  <advance width="411"/>
  <unicode hex="05D8"/>
  <anchor x="208" y="0" name="bottom"/>
  <anchor x="49" y="0" name="bottomleft"/>
  <anchor x="221" y="310" name="center"/>
  <anchor x="190" y="536" name="top"/>
  <anchor x="1" y="536" name="topleft"/>
  <outline>
    <contour>
      <point x="69" y="0" type="curve"/>
      <point x="243" y="0" type="line" smooth="yes"/>
      <point x="300" y="0"/>
      <point x="311" y="14"/>
      <point x="329" y="55" type="curve" smooth="yes"/>
      <point x="380" y="171"/>
      <point x="393" y="300"/>
      <point x="393" y="388" type="curve" smooth="yes"/>
      <point x="393" y="523"/>
      <point x="362" y="604"/>
      <point x="288" y="604" type="curve" smooth="yes"/>
      <point x="225" y="604"/>
      <point x="184" y="544"/>
      <point x="184" y="422" type="curve"/>
      <point x="211" y="422" type="line"/>
      <point x="211" y="522"/>
      <point x="244" y="576"/>
      <point x="289" y="576" type="curve" smooth="yes"/>
      <point x="353" y="576"/>
      <point x="365" y="471"/>
      <point x="365" y="377" type="curve" smooth="yes"/>
      <point x="365" y="227"/>
      <point x="334" y="146"/>
      <point x="306" y="70" type="curve" smooth="yes"/>
      <point x="294" y="38"/>
      <point x="282" y="28"/>
      <point x="253" y="28" type="curve" smooth="yes"/>
      <point x="94" y="28" type="line"/>
      <point x="84" y="110"/>
      <point x="76" y="237"/>
      <point x="76" y="326" type="curve" smooth="yes"/>
      <point x="76" y="476"/>
      <point x="86" y="529"/>
      <point x="96" y="581" type="curve"/>
      <point x="69" y="581" type="line"/>
      <point x="61" y="538"/>
      <point x="49" y="452"/>
      <point x="49" y="315" type="curve" smooth="yes"/>
      <point x="49" y="213"/>
      <point x="58" y="71"/>
    </contour>
    <contour>
      <point x="125" y="561" type="line"/>
      <point x="127" y="566"/>
      <point x="129" y="572"/>
      <point x="129" y="578" type="curve" smooth="yes"/>
      <point x="129" y="584"/>
      <point x="127" y="589"/>
      <point x="120" y="590" type="curve" smooth="yes"/>
      <point x="68" y="598" type="line" smooth="yes"/>
      <point x="49" y="601"/>
      <point x="46" y="604"/>
      <point x="46" y="629" type="curve" smooth="yes"/>
      <point x="46" y="647" type="line"/>
      <point x="33" y="647" type="line"/>
      <point x="29" y="628"/>
      <point x="26" y="611"/>
      <point x="26" y="597" type="curve" smooth="yes"/>
      <point x="26" y="580"/>
      <point x="30" y="575"/>
      <point x="45" y="573" type="curve" smooth="yes"/>
    </contour>
  </outline>
</glyph>
<glyph name="yod-hb" format="2">
  <advance width="179"/>
  <unicode hex="05D9"/>
  <anchor x="86" y="0" name="bottom"/>
  <anchor x="-74" y="0" name="bottomleft"/>
  <anchor x="63" y="498" name="center"/>
  <anchor x="99" y="536" name="top"/>
  <anchor x="-1" y="536" name="topleft"/>
  <outline>
    <contour>
      <point x="66" y="353" type="line"/>
      <point x="114" y="424" type="line" smooth="yes"/>
      <point x="139" y="461"/>
      <point x="154" y="516"/>
      <point x="154" y="556" type="curve" smooth="yes"/>
      <point x="154" y="586"/>
      <point x="146" y="592"/>
      <point x="128" y="592" type="curve" smooth="yes"/>
      <point x="60" y="592" type="line" smooth="yes"/>
      <point x="45" y="592"/>
      <point x="38" y="603"/>
      <point x="38" y="627" type="curve" smooth="yes"/>
      <point x="38" y="647" type="line"/>
      <point x="25" y="647" type="line"/>
      <point x="21" y="625"/>
      <point x="18" y="597"/>
      <point x="18" y="585" type="curve" smooth="yes"/>
      <point x="18" y="571"/>
      <point x="22" y="564"/>
      <point x="37" y="564" type="curve" smooth="yes"/>
      <point x="114" y="564" type="line" smooth="yes"/>
      <point x="126" y="564"/>
      <point x="127" y="559"/>
      <point x="127" y="546" type="curve" smooth="yes"/>
      <point x="127" y="508"/>
      <point x="119" y="471"/>
      <point x="96" y="438" type="curve" smooth="yes"/>
      <point x="48" y="368" type="line"/>
    </contour>
  </outline>
</glyph>
<glyph name="finalkaf-hb" format="2">
  <advance width="333"/>
  <unicode hex="05DA"/>
  <anchor x="129" y="404" name="bottom"/>
  <anchor x="0" y="0" name="bottomleft"/>
  <anchor x="143" y="310" name="center"/>
  <anchor x="166" y="536" name="top"/>
  <anchor x="-8" y="536" name="topleft"/>
  <outline>
    <contour>
      <point x="253" y="-240" type="line"/>
      <point x="258" y="-240" type="line"/>
      <point x="268" y="-236"/>
      <point x="277" y="-232"/>
      <point x="283" y="-226" type="curve"/>
      <point x="279" y="445" type="line" smooth="yes"/>
      <point x="279" y="498"/>
      <point x="285" y="539"/>
      <point x="288" y="564" type="curve"/>
      <point x="288" y="583" type="line" smooth="yes"/>
      <point x="288" y="589"/>
      <point x="284" y="592"/>
      <point x="278" y="592" type="curve" smooth="yes"/>
      <point x="54" y="592" type="line" smooth="yes"/>
      <point x="39" y="592"/>
      <point x="32" y="603"/>
      <point x="32" y="627" type="curve" smooth="yes"/>
      <point x="32" y="647" type="line"/>
      <point x="19" y="647" type="line"/>
      <point x="15" y="625"/>
      <point x="12" y="597"/>
      <point x="12" y="585" type="curve" smooth="yes"/>
      <point x="12" y="571"/>
      <point x="16" y="564"/>
      <point x="31" y="564" type="curve" smooth="yes"/>
      <point x="262" y="564" type="line"/>
      <point x="262" y="563" type="line"/>
      <point x="259" y="540"/>
      <point x="253" y="502"/>
      <point x="253" y="445" type="curve" smooth="yes"/>
    </contour>
  </outline>
</glyph>
<glyph name="kaf-hb" format="2">
  <advance width="350"/>
  <unicode hex="05DB"/>
  <anchor x="158" y="0" name="bottom"/>
  <anchor x="-3" y="0" name="bottomleft"/>
  <anchor x="168" y="310" name="center"/>
  <anchor x="157" y="536" name="top"/>
  <anchor x="-1" y="536" name="topleft"/>
  <outline>
    <contour>
      <point x="24" y="0" type="line"/>
      <point x="247" y="0" type="line" smooth="yes"/>
      <point x="291" y="0"/>
      <point x="313" y="18"/>
      <point x="313" y="88" type="curve" smooth="yes"/>
      <point x="313" y="520" type="line" smooth="yes"/>
      <point x="313" y="569"/>
      <point x="291" y="592"/>
      <point x="244" y="592" type="curve" smooth="yes"/>
      <point x="70" y="592" type="line" smooth="yes"/>
      <point x="55" y="592"/>
      <point x="48" y="603"/>
      <point x="48" y="627" type="curve" smooth="yes"/>
      <point x="48" y="647" type="line"/>
      <point x="35" y="647" type="line"/>
      <point x="31" y="625"/>
      <point x="28" y="597"/>
      <point x="28" y="585" type="curve" smooth="yes"/>
      <point x="28" y="571"/>
      <point x="32" y="564"/>
      <point x="47" y="564" type="curve" smooth="yes"/>
      <point x="243" y="564" type="line" smooth="yes"/>
      <point x="269" y="564"/>
      <point x="286" y="551"/>
      <point x="286" y="513" type="curve" smooth="yes"/>
      <point x="286" y="82" type="line" smooth="yes"/>
      <point x="286" y="40"/>
      <point x="278" y="28"/>
      <point x="233" y="28" type="curve" smooth="yes"/>
      <point x="27" y="28" type="line"/>
    </contour>
  </outline>
</glyph>
<glyph name="lamed-hb" format="2">
  <advance width="344"/>
  <unicode hex="05DC"/>
  <anchor x="133" y="0" name="bottom"/>
  <anchor x="-24" y="0" name="bottomleft"/>
  <anchor x="156" y="369" name="center"/>
  <anchor x="195" y="536" name="top"/>
  <anchor x="-12" y="536" name="topleft"/>
  <outline>
    <contour>
      <point x="132" y="-7" type="curve" smooth="yes"/>
      <point x="142" y="-7"/>
      <point x="147" y="-1"/>
      <point x="147" y="7" type="curve" smooth="yes"/>
      <point x="147" y="80" type="line" smooth="yes"/>
      <point x="147" y="93"/>
      <point x="152" y="98"/>
      <point x="161" y="111" type="curve" smooth="yes"/>
      <point x="293" y="302" type="line" smooth="yes"/>
      <point x="303" y="317"/>
      <point x="312" y="329"/>
      <point x="312" y="341" type="curve" smooth="yes"/>
      <point x="312" y="551" type="line" smooth="yes"/>
      <point x="312" y="569"/>
      <point x="309" y="592"/>
      <point x="277" y="592" type="curve" smooth="yes"/>
      <point x="49" y="592" type="line" smooth="yes"/>
      <point x="35" y="592"/>
      <point x="34" y="598"/>
      <point x="37" y="613" type="curve" smooth="yes"/>
      <point x="78" y="798" type="line" smooth="yes"/>
      <point x="83" y="822"/>
      <point x="80" y="829"/>
      <point x="68" y="831" type="curve" smooth="yes"/>
      <point x="51" y="834" type="line" smooth="yes"/>
      <point x="33" y="837"/>
      <point x="35" y="850"/>
      <point x="35" y="862" type="curve" smooth="yes"/>
      <point x="35" y="873" type="line"/>
      <point x="22" y="873" type="line"/>
      <point x="20" y="865"/>
      <point x="15" y="841"/>
      <point x="15" y="826" type="curve" smooth="yes"/>
      <point x="15" y="813"/>
      <point x="19" y="810"/>
      <point x="30" y="807" type="curve" smooth="yes"/>
      <point x="43" y="804" type="line" smooth="yes"/>
      <point x="50" y="802"/>
      <point x="50" y="799"/>
      <point x="49" y="794" type="curve" smooth="yes"/>
      <point x="44" y="770"/>
      <point x="4" y="602"/>
      <point x="4" y="580" type="curve" smooth="yes"/>
      <point x="4" y="566"/>
      <point x="15" y="564"/>
      <point x="24" y="564" type="curve" smooth="yes"/>
      <point x="266" y="564" type="line" smooth="yes"/>
      <point x="278" y="564"/>
      <point x="285" y="557"/>
      <point x="285" y="545" type="curve" smooth="yes"/>
      <point x="285" y="345" type="line" smooth="yes"/>
      <point x="285" y="336"/>
      <point x="282" y="332"/>
      <point x="275" y="322" type="curve" smooth="yes"/>
      <point x="140" y="128" type="line" smooth="yes"/>
      <point x="127" y="109"/>
      <point x="117" y="95"/>
      <point x="117" y="80" type="curve" smooth="yes"/>
      <point x="117" y="7" type="line" smooth="yes"/>
      <point x="117" y="-1"/>
      <point x="123" y="-7"/>
    </contour>
  </outline>
</glyph>
<glyph name="finalmem-hb" format="2">
  <advance width="397"/>
  <unicode hex="05DD"/>
  <anchor x="191" y="0" name="bottom"/>
  <anchor x="32" y="0" name="bottomleft"/>
  <anchor x="191" y="310" name="center"/>
  <anchor x="188" y="536" name="top"/>
  <anchor x="-1" y="536" name="topleft"/>
  <outline>
    <contour>
      <point x="65" y="0" type="curve" smooth="yes"/>
      <point x="282" y="0" type="line" smooth="yes"/>
      <point x="326" y="0"/>
      <point x="352" y="22"/>
      <point x="352" y="92" type="curve" smooth="yes"/>
      <point x="352" y="516" type="line" smooth="yes"/>
      <point x="352" y="565"/>
      <point x="326" y="592"/>
      <point x="279" y="592" type="curve" smooth="yes"/>
      <point x="71" y="592" type="line" smooth="yes"/>
      <point x="56" y="592"/>
      <point x="49" y="603"/>
      <point x="49" y="627" type="curve" smooth="yes"/>
      <point x="49" y="647" type="line"/>
      <point x="36" y="647" type="line"/>
      <point x="32" y="625"/>
      <point x="29" y="597"/>
      <point x="29" y="585" type="curve" smooth="yes"/>
      <point x="29" y="571"/>
      <point x="33" y="564"/>
      <point x="48" y="564" type="curve" smooth="yes"/>
      <point x="278" y="564" type="line" smooth="yes"/>
      <point x="304" y="564"/>
      <point x="325" y="547"/>
      <point x="325" y="509" type="curve" smooth="yes"/>
      <point x="325" y="86" type="line" smooth="yes"/>
      <point x="325" y="44"/>
      <point x="313" y="28"/>
      <point x="268" y="28" type="curve" smooth="yes"/>
      <point x="56" y="28" type="line"/>
      <point x="56" y="369" type="line" smooth="yes"/>
      <point x="56" y="429"/>
      <point x="71" y="534"/>
      <point x="108" y="564" type="curve"/>
      <point x="108" y="571" type="line"/>
      <point x="78" y="571" type="line"/>
      <point x="78" y="563" type="line"/>
      <point x="39" y="518"/>
      <point x="29" y="424"/>
      <point x="29" y="369" type="curve" smooth="yes"/>
      <point x="29" y="34" type="line" smooth="yes"/>
      <point x="29" y="11"/>
      <point x="36" y="0"/>
    </contour>
  </outline>
</glyph>
<glyph name="mem-hb" format="2">
  <advance width="418"/>
  <unicode hex="05DE"/>
  <anchor x="214" y="0" name="bottom"/>
  <anchor x="40" y="0" name="bottomleft"/>
  <anchor x="215" y="310" name="center"/>
  <anchor x="216" y="536" name="top"/>
  <anchor x="-1" y="536" name="topleft"/>
  <outline>
    <contour>
      <point x="23" y="0" type="line"/>
      <point x="50" y="0" type="line"/>
      <point x="68" y="291" type="line" smooth="yes"/>
      <point x="76" y="422"/>
      <point x="133" y="564"/>
      <point x="221" y="564" type="curve" smooth="yes"/>
      <point x="289" y="564"/>
      <point x="362" y="495"/>
      <point x="362" y="253" type="curve" smooth="yes"/>
      <point x="362" y="170"/>
      <point x="352" y="89"/>
      <point x="345" y="47" type="curve" smooth="yes"/>
      <point x="342" y="30"/>
      <point x="342" y="28"/>
      <point x="330" y="28" type="curve" smooth="yes"/>
      <point x="170" y="28" type="line"/>
      <point x="167" y="0" type="line"/>
      <point x="368" y="0" type="line"/>
      <point x="386" y="118"/>
      <point x="389" y="220"/>
      <point x="389" y="269" type="curve" smooth="yes"/>
      <point x="389" y="483"/>
      <point x="332" y="598"/>
      <point x="207" y="598" type="curve" smooth="yes"/>
      <point x="186" y="598" type="line"/>
      <point x="127" y="533" type="line"/>
      <point x="125" y="534" type="line"/>
      <point x="125" y="571" type="line" smooth="yes"/>
      <point x="125" y="584"/>
      <point x="120" y="592"/>
      <point x="106" y="592" type="curve" smooth="yes"/>
      <point x="63" y="592" type="line" smooth="yes"/>
      <point x="48" y="592"/>
      <point x="41" y="603"/>
      <point x="41" y="627" type="curve" smooth="yes"/>
      <point x="41" y="647" type="line"/>
      <point x="28" y="647" type="line"/>
      <point x="24" y="625"/>
      <point x="21" y="597"/>
      <point x="21" y="585" type="curve" smooth="yes"/>
      <point x="21" y="571"/>
      <point x="25" y="564"/>
      <point x="40" y="564" type="curve" smooth="yes"/>
      <point x="75" y="564" type="line" smooth="yes"/>
      <point x="96" y="564"/>
      <point x="104" y="559"/>
      <point x="104" y="547" type="curve" smooth="yes"/>
      <point x="104" y="527"/>
      <point x="103" y="519"/>
      <point x="94" y="501" type="curve" smooth="yes"/>
      <point x="81" y="475"/>
      <point x="50" y="420"/>
      <point x="41" y="280" type="curve" smooth="yes"/>
    </contour>
  </outline>
</glyph>
<glyph name="finalnun-hb" format="2">
  <advance width="160"/>
  <unicode hex="05DF"/>
  <anchor x="-2" y="0" name="bottomleft"/>
  <anchor x="40" y="310" name="center"/>
  <anchor x="80" y="536" name="top"/>
  <anchor x="0" y="536" name="topleft"/>
  <outline>
    <contour>
      <point x="80" y="-240" type="line"/>
      <point x="85" y="-240" type="line"/>
      <point x="95" y="-236"/>
      <point x="104" y="-232"/>
      <point x="110" y="-226" type="curve"/>
      <point x="106" y="445" type="line" smooth="yes"/>
      <point x="106" y="498"/>
      <point x="112" y="539"/>
      <point x="115" y="564" type="curve"/>
      <point x="115" y="583" type="line" smooth="yes"/>
      <point x="115" y="589"/>
      <point x="111" y="592"/>
      <point x="105" y="592" type="curve" smooth="yes"/>
      <point x="54" y="592" type="line" smooth="yes"/>
      <point x="39" y="592"/>
      <point x="32" y="603"/>
      <point x="32" y="627" type="curve" smooth="yes"/>
      <point x="32" y="647" type="line"/>
      <point x="19" y="647" type="line"/>
      <point x="15" y="625"/>
      <point x="12" y="597"/>
      <point x="12" y="585" type="curve" smooth="yes"/>
      <point x="12" y="571"/>
      <point x="16" y="564"/>
      <point x="31" y="564" type="curve" smooth="yes"/>
      <point x="89" y="564" type="line"/>
      <point x="89" y="563" type="line"/>
      <point x="86" y="540"/>
      <point x="80" y="502"/>
      <point x="80" y="445" type="curve" smooth="yes"/>
    </contour>
  </outline>
</glyph>
<glyph name="nun-hb" format="2">
  <advance width="220"/>
  <unicode hex="05E0"/>
  <anchor x="113" y="0" name="bottom"/>
  <anchor x="-37" y="0" name="bottomleft"/>
  <anchor x="87" y="310" name="center"/>
  <anchor x="113" y="536" name="top"/>
  <anchor x="-2" y="536" name="topleft"/>
  <outline>
    <contour>
      <point x="12" y="0" type="line"/>
      <point x="113" y="0" type="line" smooth="yes"/>
      <point x="157" y="0"/>
      <point x="183" y="22"/>
      <point x="183" y="92" type="curve" smooth="yes"/>
      <point x="183" y="523" type="line" smooth="yes"/>
      <point x="183" y="572"/>
      <point x="168" y="592"/>
      <point x="121" y="592" type="curve" smooth="yes"/>
      <point x="103" y="592" type="line" smooth="yes"/>
      <point x="88" y="592"/>
      <point x="81" y="603"/>
      <point x="81" y="627" type="curve" smooth="yes"/>
      <point x="81" y="647" type="line"/>
      <point x="68" y="647" type="line"/>
      <point x="64" y="625"/>
      <point x="61" y="597"/>
      <point x="61" y="585" type="curve" smooth="yes"/>
      <point x="61" y="571"/>
      <point x="65" y="564"/>
      <point x="80" y="564" type="curve" smooth="yes"/>
      <point x="119" y="564" type="line" smooth="yes"/>
      <point x="146" y="564"/>
      <point x="156" y="553"/>
      <point x="156" y="516" type="curve" smooth="yes"/>
      <point x="156" y="86" type="line" smooth="yes"/>
      <point x="156" y="44"/>
      <point x="144" y="28"/>
      <point x="99" y="28" type="curve" smooth="yes"/>
      <point x="15" y="28" type="line"/>
    </contour>
  </outline>
</glyph>
<glyph name="samekh-hb" format="2">
  <advance width="407"/>
  <unicode hex="05E1"/>
  <anchor x="207" y="0" name="bottom"/>
  <anchor x="55" y="0" name="bottomleft"/>
  <anchor x="204" y="310" name="center"/>
  <anchor x="199" y="536" name="top"/>
  <anchor x="1" y="536" name="topleft"/>
  <outline>
    <contour>
      <point x="206" y="-9" type="curve" smooth="yes"/>
      <point x="352" y="-9"/>
      <point x="378" y="202"/>
      <point x="378" y="306" type="curve" smooth="yes"/>
      <point x="378" y="370"/>
      <point x="368" y="445"/>
      <point x="351" y="496" type="curve" smooth="yes"/>
      <point x="325" y="575"/>
      <point x="282" y="592"/>
      <point x="203" y="592" type="curve" smooth="yes"/>
      <point x="80" y="592" type="line" smooth="yes"/>
      <point x="65" y="592"/>
      <point x="58" y="603"/>
      <point x="58" y="627" type="curve" smooth="yes"/>
      <point x="58" y="647" type="line"/>
      <point x="45" y="647" type="line"/>
      <point x="41" y="625"/>
      <point x="38" y="597"/>
      <point x="38" y="585" type="curve" smooth="yes"/>
      <point x="38" y="571"/>
      <point x="42" y="564"/>
      <point x="57" y="564" type="curve" smooth="yes"/>
      <point x="227" y="564" type="line" smooth="yes"/>
      <point x="310" y="564"/>
      <point x="351" y="480"/>
      <point x="351" y="316" type="curve" smooth="yes"/>
      <point x="351" y="104"/>
      <point x="283" y="19"/>
      <point x="204" y="19" type="curve" smooth="yes"/>
      <point x="106" y="19"/>
      <point x="56" y="143"/>
      <point x="56" y="290" type="curve" smooth="yes"/>
      <point x="56" y="424"/>
      <point x="82" y="505"/>
      <point x="97" y="564" type="curve"/>
      <point x="97" y="569" type="line"/>
      <point x="72" y="569" type="line"/>
      <point x="72" y="561" type="line"/>
      <point x="55" y="505"/>
      <point x="29" y="406"/>
      <point x="29" y="273" type="curve" smooth="yes"/>
      <point x="29" y="104"/>
      <point x="99" y="-9"/>
    </contour>
  </outline>
</glyph>
<glyph name="ayin-hb" format="2">
  <advance width="371"/>
  <unicode hex="05E2"/>
  <anchor x="203" y="0" name="bottom"/>
  <anchor x="42" y="0" name="bottomleft"/>
  <anchor x="204" y="369" name="center"/>
  <anchor x="195" y="536" name="top"/>
  <anchor x="-4" y="536" name="topleft"/>
  <outline>
    <contour>
      <point x="10" y="-47" type="line"/>
      <point x="16" y="-47" type="line"/>
      <point x="189" y="100" type="line" smooth="yes"/>
      <point x="251" y="152"/>
      <point x="291" y="211"/>
      <point x="307" y="306" type="curve" smooth="yes"/>
      <point x="353" y="578" type="line" smooth="yes"/>
      <point x="355" y="587"/>
      <point x="347" y="590"/>
      <point x="337" y="591" type="curve" smooth="yes"/>
      <point x="278" y="600" type="line" smooth="yes"/>
      <point x="261" y="602"/>
      <point x="258" y="611"/>
      <point x="258" y="635" type="curve" smooth="yes"/>
      <point x="258" y="647" type="line"/>
      <point x="245" y="647" type="line"/>
      <point x="241" y="642"/>
      <point x="236" y="616"/>
      <point x="236" y="598" type="curve" smooth="yes"/>
      <point x="236" y="580"/>
      <point x="243" y="578"/>
      <point x="259" y="575" type="curve" smooth="yes"/>
      <point x="322" y="564" type="line"/>
      <point x="288" y="351" type="line" smooth="yes"/>
      <point x="270" y="239"/>
      <point x="245" y="182"/>
      <point x="157" y="108" type="curve" smooth="yes"/>
      <point x="10" y="-15" type="line"/>
    </contour>
    <contour>
      <point x="156" y="89" type="line"/>
      <point x="184" y="102" type="line"/>
      <point x="108" y="362" type="line" smooth="yes"/>
      <point x="79" y="460"/>
      <point x="90" y="548"/>
      <point x="94" y="579" type="curve"/>
      <point x="71" y="581" type="line"/>
      <point x="60" y="509"/>
      <point x="59" y="434"/>
      <point x="81" y="356" type="curve" smooth="yes"/>
    </contour>
    <contour>
      <point x="135" y="561" type="line"/>
      <point x="137" y="566"/>
      <point x="139" y="571"/>
      <point x="139" y="579" type="curve" smooth="yes"/>
      <point x="139" y="585"/>
      <point x="135" y="589"/>
      <point x="126" y="590" type="curve" smooth="yes"/>
      <point x="64" y="599" type="line" smooth="yes"/>
      <point x="47" y="601"/>
      <point x="43" y="605"/>
      <point x="43" y="629" type="curve" smooth="yes"/>
      <point x="43" y="647" type="line"/>
      <point x="30" y="647" type="line"/>
      <point x="24" y="628"/>
      <point x="21" y="613"/>
      <point x="21" y="596" type="curve" smooth="yes"/>
      <point x="21" y="582"/>
      <point x="26" y="576"/>
      <point x="42" y="574" type="curve" smooth="yes"/>
    </contour>
  </outline>
</glyph>
<glyph name="finalpe-hb" format="2">
  <advance width="373"/>
  <unicode hex="05E3"/>
  <anchor x="118" y="0" name="bottomleft"/>
  <anchor x="216" y="293" name="center"/>
  <anchor x="157" y="536" name="top"/>
  <anchor x="-2" y="536" name="topleft"/>
  <outline>
    <contour>
      <point x="305" y="-240" type="line"/>
      <point x="310" y="-240" type="line"/>
      <point x="320" y="-236"/>
      <point x="329" y="-232"/>
      <point x="335" y="-226" type="curve"/>
      <point x="331" y="516" type="line" smooth="yes"/>
      <point x="331" y="565"/>
      <point x="306" y="592"/>
      <point x="259" y="592" type="curve" smooth="yes"/>
      <point x="54" y="592" type="line" smooth="yes"/>
      <point x="39" y="592"/>
      <point x="32" y="603"/>
      <point x="32" y="627" type="curve" smooth="yes"/>
      <point x="32" y="647" type="line"/>
      <point x="19" y="647" type="line"/>
      <point x="15" y="625"/>
      <point x="12" y="597"/>
      <point x="12" y="585" type="curve" smooth="yes"/>
      <point x="12" y="571"/>
      <point x="16" y="564"/>
      <point x="31" y="564" type="curve" smooth="yes"/>
      <point x="258" y="564" type="line" smooth="yes"/>
      <point x="284" y="564"/>
      <point x="305" y="547"/>
      <point x="305" y="509" type="curve" smooth="yes"/>
    </contour>
    <contour>
      <point x="118" y="273" type="curve"/>
      <point x="124" y="279"/>
      <point x="127" y="286"/>
      <point x="127" y="293" type="curve" smooth="yes"/>
      <point x="127" y="315"/>
      <point x="113" y="329"/>
      <point x="88" y="329" type="curve" smooth="yes"/>
      <point x="69" y="329"/>
      <point x="60" y="321"/>
      <point x="44" y="306" type="curve"/>
      <point x="44" y="313" type="line" smooth="yes"/>
      <point x="44" y="424"/>
      <point x="67" y="521"/>
      <point x="90" y="564" type="curve"/>
      <point x="90" y="573" type="line"/>
      <point x="65" y="573" type="line"/>
      <point x="65" y="563" type="line"/>
      <point x="30" y="490"/>
      <point x="18" y="359"/>
      <point x="18" y="283" type="curve" smooth="yes"/>
      <point x="18" y="278" type="line"/>
      <point x="39" y="278" type="line"/>
      <point x="51" y="291"/>
      <point x="60" y="301"/>
      <point x="81" y="301" type="curve" smooth="yes"/>
      <point x="100" y="301"/>
      <point x="116" y="288"/>
    </contour>
  </outline>
</glyph>
<glyph name="pe-hb" format="2">
  <advance width="384"/>
  <unicode hex="05E4"/>
  <anchor x="175" y="0" name="bottom"/>
  <anchor x="18" y="0" name="bottomleft"/>
  <anchor x="232" y="310" name="center"/>
  <anchor x="199" y="536" name="top"/>
  <anchor x="0" y="536" name="topleft"/>
  <outline>
    <contour>
      <point x="25" y="0" type="line"/>
      <point x="276" y="0" type="line" smooth="yes"/>
      <point x="320" y="0"/>
      <point x="346" y="22"/>
      <point x="346" y="92" type="curve" smooth="yes"/>
      <point x="346" y="516" type="line" smooth="yes"/>
      <point x="346" y="565"/>
      <point x="320" y="592"/>
      <point x="273" y="592" type="curve" smooth="yes"/>
      <point x="69" y="592" type="line" smooth="yes"/>
      <point x="54" y="592"/>
      <point x="47" y="603"/>
      <point x="47" y="627" type="curve" smooth="yes"/>
      <point x="47" y="647" type="line"/>
      <point x="34" y="647" type="line"/>
      <point x="30" y="625"/>
      <point x="27" y="597"/>
      <point x="27" y="585" type="curve" smooth="yes"/>
      <point x="27" y="571"/>
      <point x="31" y="564"/>
      <point x="46" y="564" type="curve" smooth="yes"/>
      <point x="272" y="564" type="line" smooth="yes"/>
      <point x="298" y="564"/>
      <point x="319" y="547"/>
      <point x="319" y="509" type="curve" smooth="yes"/>
      <point x="319" y="86" type="line" smooth="yes"/>
      <point x="319" y="44"/>
      <point x="307" y="28"/>
      <point x="262" y="28" type="curve" smooth="yes"/>
      <point x="28" y="28" type="line"/>
    </contour>
    <contour>
      <point x="135" y="273" type="curve"/>
      <point x="141" y="279"/>
      <point x="144" y="286"/>
      <point x="144" y="293" type="curve" smooth="yes"/>
      <point x="144" y="315"/>
      <point x="130" y="329"/>
      <point x="105" y="329" type="curve" smooth="yes"/>
      <point x="86" y="329"/>
      <point x="77" y="321"/>
      <point x="61" y="306" type="curve"/>
      <point x="61" y="313" type="line" smooth="yes"/>
      <point x="61" y="424"/>
      <point x="94" y="536"/>
      <point x="107" y="564" type="curve"/>
      <point x="107" y="573" type="line"/>
      <point x="82" y="573" type="line"/>
      <point x="82" y="563" type="line"/>
      <point x="46" y="489"/>
      <point x="35" y="357"/>
      <point x="35" y="281" type="curve" smooth="yes"/>
      <point x="35" y="278" type="line"/>
      <point x="56" y="278" type="line"/>
      <point x="68" y="291"/>
      <point x="77" y="301"/>
      <point x="98" y="301" type="curve" smooth="yes"/>
      <point x="117" y="301"/>
      <point x="133" y="288"/>
    </contour>
  </outline>
</glyph>
<glyph name="finaltsadi-hb" format="2">
  <advance width="331"/>
  <unicode hex="05E5"/>
  <anchor x="-31" y="0" name="bottomleft"/>
  <anchor x="129" y="479" name="center"/>
  <anchor x="170" y="536" name="top"/>
  <anchor x="-1" y="536" name="topleft"/>
  <outline>
    <contour>
      <point x="48" y="-240" type="line"/>
      <point x="53" y="-240" type="line"/>
      <point x="63" y="-236"/>
      <point x="72" y="-232"/>
      <point x="78" y="-226" type="curve"/>
      <point x="76" y="0" type="line" smooth="yes"/>
      <point x="74" y="177"/>
      <point x="123" y="336"/>
      <point x="203" y="453" type="curve" smooth="yes"/>
      <point x="285" y="573" type="line"/>
      <point x="261" y="580" type="line"/>
      <point x="195" y="485" type="line" smooth="yes"/>
      <point x="172" y="451"/>
      <point x="103" y="363"/>
      <point x="74" y="202" type="curve"/>
      <point x="74" y="415" type="line" smooth="yes"/>
      <point x="74" y="482"/>
      <point x="79" y="524"/>
      <point x="93" y="579" type="curve"/>
      <point x="67" y="579" type="line"/>
      <point x="67" y="575" type="line"/>
      <point x="54" y="530"/>
      <point x="48" y="478"/>
      <point x="48" y="408" type="curve" smooth="yes"/>
    </contour>
    <contour>
      <point x="128" y="563" type="line"/>
      <point x="130" y="568"/>
      <point x="132" y="574"/>
      <point x="132" y="580" type="curve" smooth="yes"/>
      <point x="132" y="586"/>
      <point x="130" y="591"/>
      <point x="123" y="592" type="curve" smooth="yes"/>
      <point x="65" y="599" type="line" smooth="yes"/>
      <point x="46" y="601"/>
      <point x="43" y="605"/>
      <point x="43" y="629" type="curve" smooth="yes"/>
      <point x="43" y="647" type="line"/>
      <point x="30" y="647" type="line"/>
      <point x="26" y="628"/>
      <point x="23" y="612"/>
      <point x="23" y="598" type="curve" smooth="yes"/>
      <point x="23" y="581"/>
      <point x="27" y="576"/>
      <point x="42" y="574" type="curve" smooth="yes"/>
    </contour>
    <contour>
      <point x="316" y="563" type="line"/>
      <point x="318" y="568"/>
      <point x="320" y="574"/>
      <point x="320" y="580" type="curve" smooth="yes"/>
      <point x="320" y="586"/>
      <point x="318" y="591"/>
      <point x="311" y="592" type="curve" smooth="yes"/>
      <point x="259" y="599" type="line" smooth="yes"/>
      <point x="240" y="602"/>
      <point x="237" y="605"/>
      <point x="237" y="629" type="curve" smooth="yes"/>
      <point x="237" y="647" type="line"/>
      <point x="224" y="647" type="line"/>
      <point x="220" y="628"/>
      <point x="217" y="612"/>
      <point x="217" y="598" type="curve" smooth="yes"/>
      <point x="217" y="581"/>
      <point x="221" y="576"/>
      <point x="236" y="574" type="curve" smooth="yes"/>
    </contour>
  </outline>
</glyph>
<glyph name="tsadi-hb" format="2">
  <advance width="363"/>
  <unicode hex="05E6"/>
  <anchor x="160" y="0" name="bottom"/>
  <anchor x="1" y="0" name="bottomleft"/>
  <anchor x="110" y="253" name="center"/>
  <anchor x="187" y="536" name="top"/>
  <anchor x="-4" y="536" name="topleft"/>
  <outline>
    <contour>
      <point x="17" y="0" type="line"/>
      <point x="305" y="0" type="line"/>
      <point x="315" y="21"/>
      <point x="322" y="55"/>
      <point x="322" y="81" type="curve" smooth="yes"/>
      <point x="322" y="106"/>
      <point x="316" y="137"/>
      <point x="297" y="165" type="curve" smooth="yes"/>
      <point x="193" y="318" type="line" smooth="yes"/>
      <point x="152" y="378"/>
      <point x="134" y="394"/>
      <point x="134" y="440" type="curve" smooth="yes"/>
      <point x="134" y="571" type="line" smooth="yes"/>
      <point x="134" y="584"/>
      <point x="129" y="592"/>
      <point x="115" y="592" type="curve" smooth="yes"/>
      <point x="67" y="592" type="line" smooth="yes"/>
      <point x="52" y="592"/>
      <point x="45" y="603"/>
      <point x="45" y="627" type="curve" smooth="yes"/>
      <point x="45" y="647" type="line"/>
      <point x="32" y="647" type="line"/>
      <point x="28" y="625"/>
      <point x="25" y="597"/>
      <point x="25" y="585" type="curve" smooth="yes"/>
      <point x="25" y="571"/>
      <point x="29" y="564"/>
      <point x="44" y="564" type="curve" smooth="yes"/>
      <point x="95" y="564" type="line" smooth="yes"/>
      <point x="104" y="564"/>
      <point x="107" y="560"/>
      <point x="107" y="550" type="curve" smooth="yes"/>
      <point x="107" y="436" type="line" smooth="yes"/>
      <point x="107" y="389"/>
      <point x="122" y="368"/>
      <point x="153" y="324" type="curve" smooth="yes"/>
      <point x="270" y="158" type="line" smooth="yes"/>
      <point x="285" y="137"/>
      <point x="295" y="118"/>
      <point x="295" y="77" type="curve" smooth="yes"/>
      <point x="295" y="64"/>
      <point x="294" y="51"/>
      <point x="290" y="41" type="curve" smooth="yes"/>
      <point x="287" y="34"/>
      <point x="285" y="28"/>
      <point x="277" y="28" type="curve" smooth="yes"/>
      <point x="20" y="28" type="line"/>
    </contour>
    <contour>
      <point x="228" y="241" type="line"/>
      <point x="228" y="350"/>
      <point x="263" y="416"/>
      <point x="286" y="483" type="curve" smooth="yes"/>
      <point x="319" y="580" type="line"/>
      <point x="293" y="580" type="line"/>
      <point x="259" y="483" type="line" smooth="yes"/>
      <point x="239" y="426"/>
      <point x="204" y="345"/>
      <point x="204" y="264" type="curve"/>
    </contour>
    <contour>
      <point x="342" y="563" type="line"/>
      <point x="344" y="568"/>
      <point x="346" y="574"/>
      <point x="346" y="580" type="curve" smooth="yes"/>
      <point x="346" y="586"/>
      <point x="344" y="591"/>
      <point x="337" y="592" type="curve" smooth="yes"/>
      <point x="288" y="598" type="line" smooth="yes"/>
      <point x="269" y="600"/>
      <point x="266" y="604"/>
      <point x="266" y="629" type="curve" smooth="yes"/>
      <point x="266" y="647" type="line"/>
      <point x="253" y="647" type="line"/>
      <point x="249" y="628"/>
      <point x="246" y="611"/>
      <point x="246" y="597" type="curve" smooth="yes"/>
      <point x="246" y="580"/>
      <point x="250" y="575"/>
      <point x="265" y="573" type="curve" smooth="yes"/>
    </contour>
  </outline>
</glyph>
<glyph name="qof-hb" format="2">
  <advance width="395"/>
  <unicode hex="05E7"/>
  <anchor x="205" y="0" name="bottom"/>
  <anchor x="-6" y="0" name="bottomleft"/>
  <anchor x="213" y="310" name="center"/>
  <anchor x="209" y="536" name="top"/>
  <anchor x="-2" y="536" name="topleft"/>
  <outline>
    <contour>
      <point x="207" y="-7" type="curve" smooth="yes"/>
      <point x="217" y="-7"/>
      <point x="220" y="-1"/>
      <point x="220" y="7" type="curve" smooth="yes"/>
      <point x="220" y="80" type="line" smooth="yes"/>
      <point x="220" y="93"/>
      <point x="224" y="98"/>
      <point x="234" y="111" type="curve" smooth="yes"/>
      <point x="346" y="248" type="line" smooth="yes"/>
      <point x="358" y="262"/>
      <point x="365" y="272"/>
      <point x="365" y="297" type="curve" smooth="yes"/>
      <point x="365" y="551" type="line" smooth="yes"/>
      <point x="365" y="569"/>
      <point x="362" y="592"/>
      <point x="330" y="592" type="curve" smooth="yes"/>
      <point x="87" y="592" type="line" smooth="yes"/>
      <point x="72" y="592"/>
      <point x="65" y="603"/>
      <point x="65" y="627" type="curve" smooth="yes"/>
      <point x="65" y="647" type="line"/>
      <point x="52" y="647" type="line"/>
      <point x="48" y="625"/>
      <point x="45" y="597"/>
      <point x="45" y="585" type="curve" smooth="yes"/>
      <point x="45" y="571"/>
      <point x="49" y="564"/>
      <point x="64" y="564" type="curve" smooth="yes"/>
      <point x="319" y="564" type="line" smooth="yes"/>
      <point x="331" y="564"/>
      <point x="338" y="557"/>
      <point x="338" y="545" type="curve" smooth="yes"/>
      <point x="338" y="291" type="line" smooth="yes"/>
      <point x="338" y="282"/>
      <point x="336" y="277"/>
      <point x="328" y="268" type="curve" smooth="yes"/>
      <point x="213" y="128" type="line" smooth="yes"/>
      <point x="199" y="110"/>
      <point x="190" y="95"/>
      <point x="190" y="80" type="curve" smooth="yes"/>
      <point x="190" y="7" type="line" smooth="yes"/>
      <point x="190" y="-1"/>
      <point x="198" y="-7"/>
    </contour>
    <contour>
      <point x="60" y="-240" type="line"/>
      <point x="65" y="-240" type="line"/>
      <point x="75" y="-236"/>
      <point x="84" y="-232"/>
      <point x="90" y="-226" type="curve"/>
      <point x="87" y="378" type="line"/>
      <point x="83" y="382" type="line"/>
      <point x="72" y="375" type="line" smooth="yes"/>
      <point x="62" y="368"/>
      <point x="60" y="352"/>
      <point x="60" y="314" type="curve" smooth="yes"/>
    </contour>
  </outline>
</glyph>
<glyph name="resh-hb" format="2">
  <advance width="324"/>
  <unicode hex="05E8"/>
  <anchor x="274" y="0" name="bottom"/>
  <anchor x="117" y="0" name="bottomleft"/>
  <anchor x="145" y="310" name="center"/>
  <anchor x="133" y="536" name="top"/>
  <anchor x="-2" y="536" name="topleft"/>
  <outline>
    <contour>
      <point x="257" y="-6" type="line"/>
      <point x="262" y="-6" type="line"/>
      <point x="272" y="-2"/>
      <point x="281" y="2"/>
      <point x="287" y="8" type="curve"/>
      <point x="283" y="516" type="line" smooth="yes"/>
      <point x="283" y="565"/>
      <point x="258" y="592"/>
      <point x="211" y="592" type="curve" smooth="yes"/>
      <point x="54" y="592" type="line" smooth="yes"/>
      <point x="39" y="592"/>
      <point x="32" y="603"/>
      <point x="32" y="627" type="curve" smooth="yes"/>
      <point x="32" y="647" type="line"/>
      <point x="19" y="647" type="line"/>
      <point x="15" y="625"/>
      <point x="12" y="597"/>
      <point x="12" y="585" type="curve" smooth="yes"/>
      <point x="12" y="571"/>
      <point x="16" y="564"/>
      <point x="31" y="564" type="curve" smooth="yes"/>
      <point x="210" y="564" type="line" smooth="yes"/>
      <point x="236" y="564"/>
      <point x="257" y="547"/>
      <point x="257" y="509" type="curve" smooth="yes"/>
    </contour>
  </outline>
</glyph>
<glyph name="shin-hb" format="2">
  <advance width="503"/>
  <unicode hex="05E9"/>
  <anchor x="215" y="0" name="bottom"/>
  <anchor x="56" y="0" name="bottomleft"/>
  <anchor x="332" y="310" name="center"/>
  <anchor x="77" y="536" name="top"/>
  <anchor x="-2" y="536" name="topleft"/>
  <anchor x="431" y="536" name="topright"/>
  <outline>
    <contour>
      <point x="67" y="0" type="curve"/>
      <point x="263" y="0" type="line" smooth="yes"/>
      <point x="409" y="0"/>
      <point x="430" y="205"/>
      <point x="439" y="272" type="curve" smooth="yes"/>
      <point x="478" y="579" type="line" smooth="yes"/>
      <point x="479" y="588"/>
      <point x="473" y="591"/>
      <point x="465" y="592" type="curve" smooth="yes"/>
      <point x="407" y="600" type="line" smooth="yes"/>
      <point x="386" y="603"/>
      <point x="387" y="611"/>
      <point x="387" y="635" type="curve" smooth="yes"/>
      <point x="387" y="647" type="line"/>
      <point x="374" y="647" type="line"/>
      <point x="373" y="642"/>
      <point x="367" y="616"/>
      <point x="367" y="598" type="curve" smooth="yes"/>
      <point x="367" y="580"/>
      <point x="373" y="578"/>
      <point x="389" y="575" type="curve" smooth="yes"/>
      <point x="449" y="565" type="line"/>
      <point x="410" y="263" type="line" smooth="yes"/>
      <point x="391" y="113"/>
      <point x="345" y="28"/>
      <point x="266" y="28" type="curve" smooth="yes"/>
      <point x="218" y="28" type="line"/>
      <point x="280" y="567" type="line"/>
      <point x="310" y="563" type="line"/>
      <point x="312" y="568"/>
      <point x="314" y="573"/>
      <point x="314" y="581" type="curve" smooth="yes"/>
      <point x="314" y="587"/>
      <point x="311" y="591"/>
      <point x="305" y="592" type="curve" smooth="yes"/>
      <point x="253" y="599" type="line" smooth="yes"/>
      <point x="234" y="602"/>
      <point x="231" y="605"/>
      <point x="231" y="629" type="curve" smooth="yes"/>
      <point x="231" y="647" type="line"/>
      <point x="218" y="647" type="line"/>
      <point x="214" y="628"/>
      <point x="211" y="613"/>
      <point x="211" y="596" type="curve" smooth="yes"/>
      <point x="211" y="582"/>
      <point x="215" y="576"/>
      <point x="230" y="574" type="curve" smooth="yes"/>
      <point x="253" y="571" type="line"/>
      <point x="190" y="28" type="line"/>
      <point x="94" y="28" type="line"/>
      <point x="79" y="110"/>
      <point x="72" y="235"/>
      <point x="72" y="334" type="curve" smooth="yes"/>
      <point x="72" y="461"/>
      <point x="86" y="528"/>
      <point x="95" y="566" type="curve"/>
      <point x="118" y="563" type="line"/>
      <point x="120" y="568"/>
      <point x="122" y="573"/>
      <point x="122" y="581" type="curve" smooth="yes"/>
      <point x="122" y="587"/>
      <point x="119" y="591"/>
      <point x="113" y="592" type="curve"/>
      <point x="67" y="598" type="line" smooth="yes"/>
      <point x="48" y="600"/>
      <point x="45" y="604"/>
      <point x="45" y="629" type="curve" smooth="yes"/>
      <point x="45" y="647" type="line"/>
      <point x="32" y="647" type="line"/>
      <point x="28" y="628"/>
      <point x="25" y="612"/>
      <point x="25" y="595" type="curve" smooth="yes"/>
      <point x="25" y="581"/>
      <point x="29" y="575"/>
      <point x="44" y="573" type="curve" smooth="yes"/>
      <point x="69" y="570" type="line"/>
      <point x="59" y="520"/>
      <point x="45" y="436"/>
      <point x="45" y="318" type="curve" smooth="yes"/>
      <point x="45" y="212"/>
      <point x="56" y="71"/>
    </contour>
  </outline>
</glyph>
<glyph name="tav-hb" format="2">
  <advance width="407"/>
  <unicode hex="05EA"/>
  <anchor x="225" y="0" name="bottom"/>
  <anchor x="64" y="0" name="bottomleft"/>
  <anchor x="223" y="310" name="center"/>
  <anchor x="223" y="536" name="top"/>
  <anchor x="4" y="536" name="topleft"/>
  <outline>
    <contour>
      <point x="340" y="-6" type="line"/>
      <point x="345" y="-6" type="line"/>
      <point x="355" y="-2"/>
      <point x="364" y="2"/>
      <point x="370" y="8" type="curve"/>
      <point x="366" y="516" type="line" smooth="yes"/>
      <point x="366" y="565"/>
      <point x="341" y="592"/>
      <point x="294" y="592" type="curve" smooth="yes"/>
      <point x="74" y="592" type="line" smooth="yes"/>
      <point x="59" y="592"/>
      <point x="52" y="603"/>
      <point x="52" y="627" type="curve" smooth="yes"/>
      <point x="52" y="647" type="line"/>
      <point x="39" y="647" type="line"/>
      <point x="35" y="625"/>
      <point x="32" y="597"/>
      <point x="32" y="585" type="curve" smooth="yes"/>
      <point x="32" y="571"/>
      <point x="36" y="564"/>
      <point x="51" y="564" type="curve" smooth="yes"/>
      <point x="293" y="564" type="line" smooth="yes"/>
      <point x="319" y="564"/>
      <point x="340" y="547"/>
      <point x="340" y="509" type="curve" smooth="yes"/>
    </contour>
    <contour>
      <point x="8" y="0" type="line"/>
      <point x="103" y="0" type="line"/>
      <point x="107" y="13"/>
      <point x="109" y="22"/>
      <point x="109" y="37" type="curve" smooth="yes"/>
      <point x="109" y="92"/>
      <point x="100" y="211"/>
      <point x="92" y="306" type="curve" smooth="yes"/>
      <point x="86" y="379"/>
      <point x="85" y="466"/>
      <point x="106" y="564" type="curve"/>
      <point x="106" y="570" type="line"/>
      <point x="84" y="570" type="line"/>
      <point x="84" y="563" type="line"/>
      <point x="63" y="466"/>
      <point x="60" y="383"/>
      <point x="65" y="292" type="curve" smooth="yes"/>
      <point x="80" y="39" type="line" smooth="yes"/>
      <point x="80" y="33"/>
      <point x="79" y="28"/>
      <point x="74" y="28" type="curve" smooth="yes"/>
      <point x="11" y="28" type="line"/>
    </contour>
  </outline>
</glyph>
<glyph name="vavvav-hb" format="2">
  <advance width="332"/>
  <unicode hex="05F0"/>
  <note>
vavvav
</note>
  <anchor x="170" y="0" name="bottom"/>
  <anchor x="-2" y="0" name="bottomleft"/>
  <anchor x="166" y="0" name="caret_2"/>
  <anchor x="88" y="310" name="center"/>
  <anchor x="129" y="536" name="top"/>
  <anchor x="0" y="536" name="topleft"/>
  <outline>
    <contour>
      <point x="257" y="-6" type="line"/>
      <point x="263" y="-6" type="line"/>
      <point x="275" y="-2"/>
      <point x="281" y="2"/>
      <point x="287" y="8" type="curve"/>
      <point x="283" y="571" type="line" smooth="yes"/>
      <point x="283" y="584"/>
      <point x="278" y="592"/>
      <point x="263" y="592" type="curve" smooth="yes"/>
      <point x="224" y="592" type="line" smooth="yes"/>
      <point x="209" y="592"/>
      <point x="201" y="603"/>
      <point x="201" y="627" type="curve" smooth="yes"/>
      <point x="201" y="647" type="line"/>
      <point x="188" y="647" type="line"/>
      <point x="184" y="635"/>
      <point x="181" y="606"/>
      <point x="181" y="582" type="curve" smooth="yes"/>
      <point x="181" y="570"/>
      <point x="188" y="564"/>
      <point x="202" y="564" type="curve" smooth="yes"/>
      <point x="245" y="564" type="line" smooth="yes"/>
      <point x="255" y="564"/>
      <point x="257" y="560"/>
      <point x="257" y="550" type="curve" smooth="yes"/>
    </contour>
    <contour>
      <point x="91" y="-6" type="line"/>
      <point x="97" y="-6" type="line"/>
      <point x="109" y="-2"/>
      <point x="115" y="2"/>
      <point x="121" y="8" type="curve"/>
      <point x="117" y="571" type="line" smooth="yes"/>
      <point x="117" y="584"/>
      <point x="112" y="592"/>
      <point x="97" y="592" type="curve" smooth="yes"/>
      <point x="58" y="592" type="line" smooth="yes"/>
      <point x="43" y="592"/>
      <point x="35" y="603"/>
      <point x="35" y="627" type="curve" smooth="yes"/>
      <point x="35" y="647" type="line"/>
      <point x="22" y="647" type="line"/>
      <point x="18" y="635"/>
      <point x="15" y="606"/>
      <point x="15" y="582" type="curve" smooth="yes"/>
      <point x="15" y="570"/>
      <point x="22" y="564"/>
      <point x="36" y="564" type="curve" smooth="yes"/>
      <point x="79" y="564" type="line" smooth="yes"/>
      <point x="89" y="564"/>
      <point x="91" y="560"/>
      <point x="91" y="550" type="curve" smooth="yes"/>
    </contour>
  </outline>
</glyph>
<glyph name="geresh-hb" format="2">
  <advance width="129"/>
  <unicode hex="05F3"/>
  <outline>
    <contour>
      <point x="26" y="463" type="line"/>
      <point x="55" y="479"/>
      <point x="89" y="505"/>
      <point x="89" y="571" type="curve" smooth="yes"/>
      <point x="89" y="618"/>
      <point x="77" y="647"/>
      <point x="47" y="647" type="curve" smooth="yes"/>
      <point x="27" y="647"/>
      <point x="22" y="634"/>
      <point x="22" y="619" type="curve" smooth="yes"/>
      <point x="22" y="585"/>
      <point x="63" y="592"/>
      <point x="63" y="538" type="curve" smooth="yes"/>
      <point x="63" y="501"/>
      <point x="39" y="489"/>
      <point x="26" y="481" type="curve"/>
    </contour>
  </outline>
</glyph>
<glyph name="gershayim-hb" format="2">
  <advance width="223"/>
  <unicode hex="05F4"/>
  <outline>
    <contour>
      <point x="26" y="463" type="line"/>
      <point x="55" y="479"/>
      <point x="89" y="505"/>
      <point x="89" y="571" type="curve" smooth="yes"/>
      <point x="89" y="618"/>
      <point x="77" y="647"/>
      <point x="47" y="647" type="curve" smooth="yes"/>
      <point x="27" y="647"/>
      <point x="22" y="634"/>
      <point x="22" y="619" type="curve" smooth="yes"/>
      <point x="22" y="585"/>
      <point x="63" y="592"/>
      <point x="63" y="538" type="curve" smooth="yes"/>
      <point x="63" y="501"/>
      <point x="39" y="489"/>
      <point x="26" y="481" type="curve"/>
    </contour>
    <contour>
      <point x="120" y="463" type="line"/>
      <point x="149" y="479"/>
      <point x="183" y="505"/>
      <point x="183" y="571" type="curve" smooth="yes"/>
      <point x="183" y="618"/>
      <point x="171" y="647"/>
      <point x="141" y="647" type="curve" smooth="yes"/>
      <point x="121" y="647"/>
      <point x="116" y="634"/>
      <point x="116" y="619" type="curve" smooth="yes"/>
      <point x="116" y="585"/>
      <point x="157" y="592"/>
      <point x="157" y="538" type="curve" smooth="yes"/>
      <point x="157" y="501"/>
      <point x="133" y="489"/>
      <point x="120" y="481" type="curve"/>
    </contour>
  </outline>
</glyph>
<glyph name="sheqel" format="2">
  <advance width="540"/>
  <unicode hex="20AA"/>
  <note>
sheqel
</note>
  <outline>
    <contour>
      <point x="207" y="0" type="curve"/>
      <point x="330" y="0" type="line" smooth="yes"/>
      <point x="476" y="0"/>
      <point x="491" y="205"/>
      <point x="496" y="272" type="curve" smooth="yes"/>
      <point x="521" y="579" type="line" smooth="yes"/>
      <point x="522" y="588"/>
      <point x="516" y="591"/>
      <point x="508" y="592" type="curve" smooth="yes"/>
      <point x="450" y="600" type="line" smooth="yes"/>
      <point x="429" y="603"/>
      <point x="430" y="611"/>
      <point x="430" y="635" type="curve" smooth="yes"/>
      <point x="430" y="647" type="line"/>
      <point x="417" y="647" type="line"/>
      <point x="416" y="642"/>
      <point x="410" y="616"/>
      <point x="410" y="598" type="curve" smooth="yes"/>
      <point x="410" y="580"/>
      <point x="416" y="578"/>
      <point x="432" y="575" type="curve" smooth="yes"/>
      <point x="492" y="565" type="line"/>
      <point x="467" y="263" type="line" smooth="yes"/>
      <point x="455" y="113"/>
      <point x="414" y="28"/>
      <point x="333" y="28" type="curve" smooth="yes"/>
      <point x="234" y="28" type="line"/>
      <point x="213" y="140"/>
      <point x="209" y="291"/>
      <point x="214" y="417" type="curve"/>
      <point x="188" y="417" type="line"/>
      <point x="186" y="388"/>
      <point x="185" y="323"/>
      <point x="185" y="288" type="curve" smooth="yes"/>
      <point x="185" y="182"/>
      <point x="196" y="71"/>
    </contour>
    <contour>
      <point x="54" y="-6" type="line"/>
      <point x="59" y="-6" type="line"/>
      <point x="69" y="-2"/>
      <point x="78" y="2"/>
      <point x="84" y="8" type="curve"/>
      <point x="79" y="564" type="line"/>
      <point x="319" y="564" type="line"/>
      <point x="319" y="563" type="line"/>
      <point x="317" y="535"/>
      <point x="317" y="502"/>
      <point x="317" y="444" type="curve" smooth="yes"/>
      <point x="317" y="194" type="line"/>
      <point x="322" y="194" type="line"/>
      <point x="332" y="198"/>
      <point x="341" y="202"/>
      <point x="347" y="208" type="curve"/>
      <point x="342" y="564" type="line"/>
      <point x="354" y="567" type="line"/>
      <point x="354" y="583" type="line" smooth="yes"/>
      <point x="354" y="589"/>
      <point x="350" y="592"/>
      <point x="344" y="592" type="curve" smooth="yes"/>
      <point x="73" y="592" type="line" smooth="yes"/>
      <point x="58" y="592"/>
      <point x="51" y="603"/>
      <point x="51" y="627" type="curve" smooth="yes"/>
      <point x="51" y="647" type="line"/>
      <point x="38" y="647" type="line"/>
      <point x="34" y="625"/>
      <point x="31" y="597"/>
      <point x="31" y="585" type="curve" smooth="yes"/>
      <point x="31" y="571"/>
      <point x="35" y="564"/>
      <point x="50" y="564" type="curve" smooth="yes"/>
      <point x="56" y="564" type="line"/>
      <point x="56" y="563" type="line"/>
      <point x="55" y="535"/>
      <point x="54" y="502"/>
      <point x="54" y="444" type="curve" smooth="yes"/>
    </contour>
  </outline>
</glyph>
<glyph name="judeospanishvarika-hb" format="2">
  <unicode hex="FB1E"/>
  <note>
uniFB1E
</note>
  <anchor x="155" y="536" name="_top"/>
  <outline>
    <contour>
      <point x="261" y="759" type="curve"/>
      <point x="242" y="756" type="line"/>
      <point x="242" y="709"/>
      <point x="211" y="671"/>
      <point x="156" y="671" type="curve" smooth="yes"/>
      <point x="102" y="671"/>
      <point x="71" y="700"/>
      <point x="71" y="759" type="curve"/>
      <point x="50" y="756" type="line"/>
      <point x="50" y="691"/>
      <point x="89" y="650"/>
      <point x="156" y="650" type="curve" smooth="yes"/>
      <point x="222" y="650"/>
      <point x="261" y="694"/>
    </contour>
  </outline>
</glyph>
<glyph name="ayinaltone-hb" format="2">
  <advance width="378"/>
  <unicode hex="FB20"/>
  <note>
alternativeayin
</note>
  <anchor x="132" y="0" name="bottom"/>
  <anchor x="-24" y="0" name="bottomleft"/>
  <anchor x="191" y="536" name="top"/>
  <anchor x="1" y="536" name="topleft"/>
  <outline>
    <contour>
      <point x="6" y="0" type="line"/>
      <point x="139" y="0" type="line" smooth="yes"/>
      <point x="247" y="0"/>
      <point x="295" y="87"/>
      <point x="318" y="262" type="curve" smooth="yes"/>
      <point x="361" y="585" type="line" smooth="yes"/>
      <point x="362" y="591"/>
      <point x="357" y="595"/>
      <point x="347" y="597" type="curve" smooth="yes"/>
      <point x="297" y="606" type="line" smooth="yes"/>
      <point x="283" y="609"/>
      <point x="276" y="618"/>
      <point x="276" y="642" type="curve" smooth="yes"/>
      <point x="276" y="647" type="line"/>
      <point x="263" y="647" type="line"/>
      <point x="258" y="642"/>
      <point x="254" y="620"/>
      <point x="254" y="602" type="curve" smooth="yes"/>
      <point x="254" y="584"/>
      <point x="260" y="583"/>
      <point x="275" y="580" type="curve" smooth="yes"/>
      <point x="330" y="569" type="line"/>
      <point x="287" y="262" type="line" smooth="yes"/>
      <point x="264" y="97"/>
      <point x="217" y="28"/>
      <point x="144" y="28" type="curve" smooth="yes"/>
      <point x="10" y="28" type="line"/>
    </contour>
    <contour>
      <point x="130" y="10" type="line"/>
      <point x="158" y="23" type="line"/>
      <point x="102" y="341" type="line" smooth="yes"/>
      <point x="84" y="445"/>
      <point x="90" y="548"/>
      <point x="93" y="579" type="curve"/>
      <point x="71" y="581" type="line"/>
      <point x="60" y="509"/>
      <point x="61" y="414"/>
      <point x="75" y="335" type="curve" smooth="yes"/>
    </contour>
    <contour>
      <point x="129" y="567" type="line"/>
      <point x="131" y="571"/>
      <point x="132" y="578"/>
      <point x="132" y="583" type="curve" smooth="yes"/>
      <point x="132" y="592"/>
      <point x="128" y="596"/>
      <point x="118" y="598" type="curve" smooth="yes"/>
      <point x="67" y="607" type="line" smooth="yes"/>
      <point x="53" y="609"/>
      <point x="46" y="618"/>
      <point x="46" y="642" type="curve" smooth="yes"/>
      <point x="46" y="647" type="line"/>
      <point x="33" y="647" type="line"/>
      <point x="28" y="642"/>
      <point x="24" y="620"/>
      <point x="24" y="602" type="curve" smooth="yes"/>
      <point x="24" y="584"/>
      <point x="30" y="582"/>
      <point x="45" y="580" type="curve" smooth="yes"/>
    </contour>
  </outline>
</glyph>
<glyph name="widealef-hb" format="2">
  <advance width="630"/>
  <unicode hex="FB21"/>
  <note>
alefwide
</note>
  <outline>
    <contour>
      <point x="583" y="-3" type="curve"/>
      <point x="592" y="-3" type="line"/>
      <point x="597" y="3"/>
      <point x="602" y="11"/>
      <point x="602" y="18" type="curve" smooth="yes"/>
      <point x="602" y="31"/>
      <point x="597" y="49"/>
      <point x="581" y="66" type="curve" smooth="yes"/>
      <point x="54" y="610" type="line" smooth="yes"/>
      <point x="46" y="618"/>
      <point x="44" y="627"/>
      <point x="44" y="638" type="curve" smooth="yes"/>
      <point x="44" y="647" type="line"/>
      <point x="32" y="647" type="line"/>
      <point x="27" y="638"/>
      <point x="23" y="629"/>
      <point x="23" y="621" type="curve" smooth="yes"/>
      <point x="23" y="611"/>
      <point x="23" y="602"/>
      <point x="36" y="588" type="curve" smooth="yes"/>
      <point x="570" y="36" type="line" smooth="yes"/>
      <point x="580" y="25"/>
      <point x="583" y="9"/>
    </contour>
    <contour>
      <point x="28" y="0" type="line"/>
      <point x="90" y="0" type="line"/>
      <point x="94" y="10"/>
      <point x="93" y="12"/>
      <point x="90" y="43" type="curve" smooth="yes"/>
      <point x="69" y="230" type="line" smooth="yes"/>
      <point x="63" y="279"/>
      <point x="71" y="330"/>
      <point x="82" y="379" type="curve" smooth="yes"/>
      <point x="118" y="536" type="line"/>
      <point x="96" y="536" type="line"/>
      <point x="55" y="379" type="line" smooth="yes"/>
      <point x="40" y="323"/>
      <point x="36" y="272"/>
      <point x="40" y="225" type="curve" smooth="yes"/>
      <point x="56" y="35" type="line" smooth="yes"/>
      <point x="57" y="23"/>
      <point x="55" y="20"/>
      <point x="44" y="20" type="curve" smooth="yes"/>
      <point x="28" y="20" type="line"/>
    </contour>
    <contour>
      <point x="509" y="135" type="line"/>
      <point x="509" y="284"/>
      <point x="519" y="392"/>
      <point x="538" y="459" type="curve" smooth="yes"/>
      <point x="573" y="580" type="line"/>
      <point x="547" y="580" type="line"/>
      <point x="511" y="459" type="line" smooth="yes"/>
      <point x="494" y="403"/>
      <point x="483" y="257"/>
      <point x="483" y="160" type="curve"/>
    </contour>
    <contour>
      <point x="607" y="561" type="line"/>
      <point x="610" y="566"/>
      <point x="612" y="571"/>
      <point x="612" y="579" type="curve" smooth="yes"/>
      <point x="612" y="585"/>
      <point x="607" y="589"/>
      <point x="598" y="590" type="curve" smooth="yes"/>
      <point x="545" y="598" type="line" smooth="yes"/>
      <point x="529" y="600"/>
      <point x="525" y="604"/>
      <point x="525" y="629" type="curve" smooth="yes"/>
      <point x="525" y="647" type="line"/>
      <point x="512" y="647" type="line"/>
      <point x="506" y="628"/>
      <point x="503" y="612"/>
      <point x="503" y="595" type="curve" smooth="yes"/>
      <point x="503" y="581"/>
      <point x="508" y="575"/>
      <point x="523" y="573" type="curve" smooth="yes"/>
    </contour>
  </outline>
</glyph>
<glyph name="widedalet-hb" format="2">
  <advance width="540"/>
  <unicode hex="FB22"/>
  <note>
daletwide
</note>
  <outline>
    <contour>
      <point x="451" y="-6" type="line"/>
      <point x="456" y="-6" type="line"/>
      <point x="466" y="-2"/>
      <point x="475" y="2"/>
      <point x="481" y="8" type="curve"/>
      <point x="476" y="564" type="line"/>
      <point x="515" y="564" type="line"/>
      <point x="515" y="583" type="line" smooth="yes"/>
      <point x="515" y="589"/>
      <point x="511" y="592"/>
      <point x="505" y="592" type="curve" smooth="yes"/>
      <point x="50" y="592" type="line" smooth="yes"/>
      <point x="35" y="592"/>
      <point x="28" y="603"/>
      <point x="28" y="627" type="curve" smooth="yes"/>
      <point x="28" y="647" type="line"/>
      <point x="15" y="647" type="line"/>
      <point x="13" y="635"/>
      <point x="8" y="606"/>
      <point x="8" y="582" type="curve" smooth="yes"/>
      <point x="8" y="570"/>
      <point x="14" y="564"/>
      <point x="27" y="564" type="curve" smooth="yes"/>
      <point x="453" y="564" type="line"/>
      <point x="453" y="563" type="line" smooth="yes"/>
      <point x="453" y="530"/>
      <point x="451" y="502"/>
      <point x="451" y="444" type="curve" smooth="yes"/>
    </contour>
  </outline>
</glyph>
<glyph name="widehe-hb" format="2">
  <advance width="619"/>
  <unicode hex="FB23"/>
  <note>
hewide
</note>
  <outline>
    <contour>
      <point x="537" y="-6" type="line"/>
      <point x="542" y="-6" type="line"/>
      <point x="552" y="-2"/>
      <point x="561" y="2"/>
      <point x="567" y="8" type="curve"/>
      <point x="561" y="564" type="line"/>
      <point x="574" y="567" type="line"/>
      <point x="574" y="583" type="line" smooth="yes"/>
      <point x="574" y="589"/>
      <point x="570" y="592"/>
      <point x="564" y="592" type="curve" smooth="yes"/>
      <point x="75" y="592" type="line" smooth="yes"/>
      <point x="60" y="592"/>
      <point x="53" y="603"/>
      <point x="53" y="627" type="curve" smooth="yes"/>
      <point x="53" y="647" type="line"/>
      <point x="40" y="647" type="line"/>
      <point x="36" y="625"/>
      <point x="33" y="597"/>
      <point x="33" y="585" type="curve" smooth="yes"/>
      <point x="33" y="571"/>
      <point x="37" y="564"/>
      <point x="52" y="564" type="curve" smooth="yes"/>
      <point x="538" y="564" type="line"/>
      <point x="538" y="563" type="line"/>
      <point x="537" y="541"/>
      <point x="537" y="502"/>
      <point x="537" y="444" type="curve" smooth="yes"/>
    </contour>
    <contour>
      <point x="48" y="-6" type="line"/>
      <point x="53" y="-6" type="line"/>
      <point x="65" y="-2"/>
      <point x="69" y="2"/>
      <point x="75" y="8" type="curve"/>
      <point x="75" y="378" type="line"/>
      <point x="71" y="382" type="line"/>
      <point x="62" y="375" type="line" smooth="yes"/>
      <point x="52" y="368"/>
      <point x="48" y="352"/>
      <point x="48" y="314" type="curve" smooth="yes"/>
    </contour>
  </outline>
</glyph>
<glyph name="widekaf-hb" format="2">
  <advance width="570"/>
  <unicode hex="FB24"/>
  <note>
kafwide
</note>
  <outline>
    <contour>
      <point x="24" y="0" type="line"/>
      <point x="467" y="0" type="line" smooth="yes"/>
      <point x="511" y="0"/>
      <point x="533" y="18"/>
      <point x="533" y="88" type="curve" smooth="yes"/>
      <point x="533" y="520" type="line" smooth="yes"/>
      <point x="533" y="569"/>
      <point x="511" y="592"/>
      <point x="464" y="592" type="curve" smooth="yes"/>
      <point x="70" y="592" type="line" smooth="yes"/>
      <point x="55" y="592"/>
      <point x="48" y="603"/>
      <point x="48" y="627" type="curve" smooth="yes"/>
      <point x="48" y="647" type="line"/>
      <point x="35" y="647" type="line"/>
      <point x="31" y="625"/>
      <point x="28" y="597"/>
      <point x="28" y="585" type="curve" smooth="yes"/>
      <point x="28" y="571"/>
      <point x="32" y="564"/>
      <point x="47" y="564" type="curve" smooth="yes"/>
      <point x="463" y="564" type="line" smooth="yes"/>
      <point x="489" y="564"/>
      <point x="506" y="551"/>
      <point x="506" y="513" type="curve" smooth="yes"/>
      <point x="506" y="82" type="line" smooth="yes"/>
      <point x="506" y="40"/>
      <point x="498" y="28"/>
      <point x="453" y="28" type="curve" smooth="yes"/>
      <point x="27" y="28" type="line"/>
    </contour>
  </outline>
</glyph>
<glyph name="widelamed-hb" format="2">
  <advance width="564"/>
  <unicode hex="FB25"/>
  <note>
lamedwide
</note>
  <outline>
    <contour>
      <point x="352" y="-7" type="curve" smooth="yes"/>
      <point x="362" y="-7"/>
      <point x="367" y="-1"/>
      <point x="367" y="7" type="curve" smooth="yes"/>
      <point x="367" y="80" type="line" smooth="yes"/>
      <point x="367" y="93"/>
      <point x="372" y="98"/>
      <point x="381" y="111" type="curve" smooth="yes"/>
      <point x="513" y="302" type="line" smooth="yes"/>
      <point x="523" y="317"/>
      <point x="532" y="329"/>
      <point x="532" y="341" type="curve" smooth="yes"/>
      <point x="532" y="551" type="line" smooth="yes"/>
      <point x="532" y="569"/>
      <point x="529" y="592"/>
      <point x="497" y="592" type="curve" smooth="yes"/>
      <point x="49" y="592" type="line" smooth="yes"/>
      <point x="35" y="592"/>
      <point x="34" y="598"/>
      <point x="37" y="613" type="curve" smooth="yes"/>
      <point x="78" y="798" type="line" smooth="yes"/>
      <point x="83" y="822"/>
      <point x="80" y="829"/>
      <point x="68" y="831" type="curve" smooth="yes"/>
      <point x="51" y="834" type="line" smooth="yes"/>
      <point x="33" y="837"/>
      <point x="35" y="850"/>
      <point x="35" y="862" type="curve" smooth="yes"/>
      <point x="35" y="873" type="line"/>
      <point x="22" y="873" type="line"/>
      <point x="20" y="865"/>
      <point x="15" y="841"/>
      <point x="15" y="826" type="curve" smooth="yes"/>
      <point x="15" y="813"/>
      <point x="19" y="810"/>
      <point x="30" y="807" type="curve" smooth="yes"/>
      <point x="43" y="804" type="line" smooth="yes"/>
      <point x="50" y="802"/>
      <point x="50" y="799"/>
      <point x="49" y="794" type="curve" smooth="yes"/>
      <point x="44" y="770"/>
      <point x="4" y="602"/>
      <point x="4" y="580" type="curve" smooth="yes"/>
      <point x="4" y="566"/>
      <point x="15" y="564"/>
      <point x="24" y="564" type="curve" smooth="yes"/>
      <point x="486" y="564" type="line" smooth="yes"/>
      <point x="498" y="564"/>
      <point x="505" y="557"/>
      <point x="505" y="545" type="curve" smooth="yes"/>
      <point x="505" y="345" type="line" smooth="yes"/>
      <point x="505" y="336"/>
      <point x="502" y="332"/>
      <point x="495" y="322" type="curve" smooth="yes"/>
      <point x="360" y="128" type="line" smooth="yes"/>
      <point x="347" y="109"/>
      <point x="337" y="95"/>
      <point x="337" y="80" type="curve" smooth="yes"/>
      <point x="337" y="7" type="line" smooth="yes"/>
      <point x="337" y="-1"/>
      <point x="343" y="-7"/>
    </contour>
  </outline>
</glyph>
<glyph name="finalwidemem-hb" format="2">
  <advance width="617"/>
  <unicode hex="FB26"/>
  <note>
finalmemwide
</note>
  <outline>
    <contour>
      <point x="65" y="0" type="curve" smooth="yes"/>
      <point x="502" y="0" type="line" smooth="yes"/>
      <point x="546" y="0"/>
      <point x="572" y="22"/>
      <point x="572" y="92" type="curve" smooth="yes"/>
      <point x="572" y="516" type="line" smooth="yes"/>
      <point x="572" y="565"/>
      <point x="546" y="592"/>
      <point x="499" y="592" type="curve" smooth="yes"/>
      <point x="71" y="592" type="line" smooth="yes"/>
      <point x="56" y="592"/>
      <point x="49" y="603"/>
      <point x="49" y="627" type="curve" smooth="yes"/>
      <point x="49" y="647" type="line"/>
      <point x="36" y="647" type="line"/>
      <point x="32" y="625"/>
      <point x="29" y="597"/>
      <point x="29" y="585" type="curve" smooth="yes"/>
      <point x="29" y="571"/>
      <point x="33" y="564"/>
      <point x="48" y="564" type="curve" smooth="yes"/>
      <point x="498" y="564" type="line" smooth="yes"/>
      <point x="524" y="564"/>
      <point x="545" y="547"/>
      <point x="545" y="509" type="curve" smooth="yes"/>
      <point x="545" y="86" type="line" smooth="yes"/>
      <point x="545" y="44"/>
      <point x="533" y="28"/>
      <point x="488" y="28" type="curve" smooth="yes"/>
      <point x="56" y="28" type="line"/>
      <point x="56" y="369" type="line" smooth="yes"/>
      <point x="56" y="429"/>
      <point x="71" y="534"/>
      <point x="108" y="564" type="curve"/>
      <point x="108" y="571" type="line"/>
      <point x="78" y="571" type="line"/>
      <point x="78" y="563" type="line"/>
      <point x="39" y="518"/>
      <point x="29" y="424"/>
      <point x="29" y="369" type="curve" smooth="yes"/>
      <point x="29" y="34" type="line" smooth="yes"/>
      <point x="29" y="11"/>
      <point x="36" y="0"/>
    </contour>
  </outline>
</glyph>
<glyph name="wideresh-hb" format="2">
  <advance width="544"/>
  <unicode hex="FB27"/>
  <note>
reshwide
</note>
  <outline>
    <contour>
      <point x="477" y="-6" type="line"/>
      <point x="482" y="-6" type="line"/>
      <point x="492" y="-2"/>
      <point x="501" y="2"/>
      <point x="507" y="8" type="curve"/>
      <point x="503" y="516" type="line" smooth="yes"/>
      <point x="503" y="565"/>
      <point x="478" y="592"/>
      <point x="431" y="592" type="curve" smooth="yes"/>
      <point x="54" y="592" type="line" smooth="yes"/>
      <point x="39" y="592"/>
      <point x="32" y="603"/>
      <point x="32" y="627" type="curve" smooth="yes"/>
      <point x="32" y="647" type="line"/>
      <point x="19" y="647" type="line"/>
      <point x="15" y="625"/>
      <point x="12" y="597"/>
      <point x="12" y="585" type="curve" smooth="yes"/>
      <point x="12" y="571"/>
      <point x="16" y="564"/>
      <point x="31" y="564" type="curve" smooth="yes"/>
      <point x="430" y="564" type="line" smooth="yes"/>
      <point x="456" y="564"/>
      <point x="477" y="547"/>
      <point x="477" y="509" type="curve" smooth="yes"/>
    </contour>
  </outline>
</glyph>
<glyph name="widetav-hb" format="2">
  <advance width="627"/>
  <unicode hex="FB28"/>
  <note>
tavwide
</note>
  <outline>
    <contour>
      <point x="560" y="-6" type="line"/>
      <point x="565" y="-6" type="line"/>
      <point x="575" y="-2"/>
      <point x="584" y="2"/>
      <point x="590" y="8" type="curve"/>
      <point x="586" y="516" type="line" smooth="yes"/>
      <point x="586" y="565"/>
      <point x="561" y="592"/>
      <point x="514" y="592" type="curve" smooth="yes"/>
      <point x="74" y="592" type="line" smooth="yes"/>
      <point x="59" y="592"/>
      <point x="52" y="603"/>
      <point x="52" y="627" type="curve" smooth="yes"/>
      <point x="52" y="647" type="line"/>
      <point x="39" y="647" type="line"/>
      <point x="35" y="625"/>
      <point x="32" y="597"/>
      <point x="32" y="585" type="curve" smooth="yes"/>
      <point x="32" y="571"/>
      <point x="36" y="564"/>
      <point x="51" y="564" type="curve" smooth="yes"/>
      <point x="513" y="564" type="line" smooth="yes"/>
      <point x="539" y="564"/>
      <point x="560" y="547"/>
      <point x="560" y="509" type="curve" smooth="yes"/>
    </contour>
    <contour>
      <point x="8" y="0" type="line"/>
      <point x="103" y="0" type="line"/>
      <point x="107" y="13"/>
      <point x="109" y="22"/>
      <point x="109" y="37" type="curve" smooth="yes"/>
      <point x="109" y="92"/>
      <point x="100" y="211"/>
      <point x="92" y="306" type="curve" smooth="yes"/>
      <point x="86" y="379"/>
      <point x="85" y="466"/>
      <point x="106" y="564" type="curve"/>
      <point x="106" y="570" type="line"/>
      <point x="84" y="570" type="line"/>
      <point x="84" y="563" type="line"/>
      <point x="63" y="466"/>
      <point x="60" y="383"/>
      <point x="65" y="292" type="curve" smooth="yes"/>
      <point x="80" y="39" type="line" smooth="yes"/>
      <point x="80" y="33"/>
      <point x="79" y="28"/>
      <point x="74" y="28" type="curve" smooth="yes"/>
      <point x="11" y="28" type="line"/>
    </contour>
  </outline>
</glyph>
<glyph name="alternativeplus-hb" format="2">
  <advance width="425"/>
  <unicode hex="FB29"/>
  <note>
alt_plussign
</note>
  <outline>
    <contour>
      <point x="50" y="344" type="line"/>
      <point x="375" y="344" type="line"/>
      <point x="375" y="372" type="line"/>
      <point x="228" y="372" type="line"/>
      <point x="228" y="572" type="line"/>
      <point x="198" y="572" type="line"/>
      <point x="198" y="372" type="line"/>
      <point x="50" y="372" type="line"/>
    </contour>
  </outline>
</glyph>
<glyph name="aleflamed-hb" format="2">
  <advance width="389"/>
  <unicode hex="FB4F"/>
  <note>
aleflamed
</note>
  <anchor x="205" y="0" name="caret_1"/>
  <outline>
    <contour>
      <point x="342" y="-3" type="curve"/>
      <point x="351" y="-3" type="line"/>
      <point x="356" y="3"/>
      <point x="361" y="11"/>
      <point x="361" y="18" type="curve" smooth="yes"/>
      <point x="361" y="31"/>
      <point x="351" y="48"/>
      <point x="340" y="68" type="curve" smooth="yes"/>
      <point x="37" y="608" type="line" smooth="yes"/>
      <point x="31" y="619"/>
      <point x="30" y="623"/>
      <point x="32" y="634" type="curve" smooth="yes"/>
      <point x="67" y="797" type="line" smooth="yes"/>
      <point x="72" y="821"/>
      <point x="69" y="829"/>
      <point x="60" y="830" type="curve" smooth="yes"/>
      <point x="42" y="832" type="line" smooth="yes"/>
      <point x="28" y="834"/>
      <point x="25" y="849"/>
      <point x="25" y="861" type="curve" smooth="yes"/>
      <point x="25" y="872" type="line"/>
      <point x="15" y="872" type="line"/>
      <point x="13" y="864"/>
      <point x="9" y="840"/>
      <point x="9" y="825" type="curve" smooth="yes"/>
      <point x="9" y="812"/>
      <point x="13" y="808"/>
      <point x="21" y="806" type="curve" smooth="yes"/>
      <point x="36" y="803" type="line" smooth="yes"/>
      <point x="42" y="802"/>
      <point x="42" y="798"/>
      <point x="41" y="793" type="curve" smooth="yes"/>
      <point x="15" y="678"/>
      <point x="4" y="632"/>
      <point x="4" y="615" type="curve" smooth="yes"/>
      <point x="4" y="606"/>
      <point x="7" y="600"/>
      <point x="15" y="586" type="curve" smooth="yes"/>
      <point x="329" y="29" type="line" smooth="yes"/>
      <point x="336" y="16"/>
      <point x="342" y="9"/>
    </contour>
    <contour>
      <point x="270" y="188" type="line"/>
      <point x="270" y="337"/>
      <point x="280" y="392"/>
      <point x="299" y="459" type="curve" smooth="yes"/>
      <point x="334" y="580" type="line"/>
      <point x="308" y="580" type="line"/>
      <point x="272" y="459" type="line" smooth="yes"/>
      <point x="256" y="403"/>
      <point x="244" y="318"/>
      <point x="244" y="221" type="curve"/>
    </contour>
    <contour>
      <point x="366" y="561" type="line"/>
      <point x="369" y="566"/>
      <point x="371" y="571"/>
      <point x="371" y="579" type="curve" smooth="yes"/>
      <point x="371" y="585"/>
      <point x="366" y="589"/>
      <point x="357" y="590" type="curve" smooth="yes"/>
      <point x="304" y="598" type="line" smooth="yes"/>
      <point x="288" y="600"/>
      <point x="284" y="604"/>
      <point x="284" y="629" type="curve" smooth="yes"/>
      <point x="284" y="647" type="line"/>
      <point x="271" y="647" type="line"/>
      <point x="265" y="628"/>
      <point x="262" y="612"/>
      <point x="262" y="595" type="curve" smooth="yes"/>
      <point x="262" y="581"/>
      <point x="267" y="575"/>
      <point x="282" y="573" type="curve" smooth="yes"/>
    </contour>
  </outline>
</glyph>
<glyph name="hatafqamats_zerowidthjoiner_siluqleft-hb" format="2">
  <anchor x="174" y="0" name="_bottom"/>
  <outline>
    <contour>
      <point x="91" y="-196" type="line"/>
      <point x="116" y="-193" type="line"/>
      <point x="116" y="-106" type="line"/>
      <point x="155" y="-106" type="line"/>
      <point x="158" y="-81" type="line"/>
      <point x="53" y="-81" type="line"/>
      <point x="50" y="-106" type="line"/>
      <point x="91" y="-106" type="line"/>
    </contour>
    <contour>
      <point x="193" y="-211" type="line"/>
      <point x="218" y="-208" type="line"/>
      <point x="218" y="-66" type="line"/>
      <point x="193" y="-69" type="line"/>
    </contour>
    <contour>
      <point x="274" y="-211" type="curve" smooth="yes"/>
      <point x="294" y="-211"/>
      <point x="297" y="-198"/>
      <point x="297" y="-183" type="curve" smooth="yes"/>
      <point x="297" y="-168"/>
      <point x="294" y="-155"/>
      <point x="274" y="-155" type="curve" smooth="yes"/>
      <point x="257" y="-155"/>
      <point x="253" y="-168"/>
      <point x="253" y="-183" type="curve" smooth="yes"/>
      <point x="253" y="-198"/>
      <point x="257" y="-211"/>
    </contour>
    <contour>
      <point x="274" y="-122" type="curve" smooth="yes"/>
      <point x="294" y="-122"/>
      <point x="297" y="-109"/>
      <point x="297" y="-94" type="curve" smooth="yes"/>
      <point x="297" y="-79"/>
      <point x="294" y="-66"/>
      <point x="274" y="-66" type="curve" smooth="yes"/>
      <point x="257" y="-66"/>
      <point x="253" y="-79"/>
      <point x="253" y="-94" type="curve" smooth="yes"/>
      <point x="253" y="-109"/>
      <point x="257" y="-122"/>
    </contour>
  </outline>
</glyph>
